ModPlug Tracker  IT
|F#401v64TD8
|...........
|...........
|...........
|...........
|...........
|...........
|...........
|...........
|...........
|...........
|...........
|...........
|...........
|===........
|...........
|C#501v64...
|...........
|...........
|...........
|...........
|...........
|...........
|...........
|A#401v64...
|...........
|...........
|...........
|...........
|...........
|...........
|...........
|A#401v64...
|...........
|...........
|...........
|...........
|...........
|...........
|...........
|...........
|...........
|...........
|...........
|...........
|...........
|===........
|...........
|G#401v64...
|...........
|...........
|...........
|...........
|...........
|...........
|...........
|F#401v64...
|...........
|...........
|...........
|...........
|...........
|...........
|...........
|F#401v64...
|...........
|...........
|...........
|...........
|...........
|...........
|...........
|B-401v64...
|...........
|...........
|...........
|...........
|...........
|...........
|...........
|...........
|...........
|...........
|...........
|...........
|...........
|...........
|...........
|A#401v64...
|...........
|...........
|...........
|...........
|...........
|...........
|...........
|A#401v64...
|...........
|...........
|...........
|...........
|...........
|...........
|...........
|G#401v64...
|...........
|...........
|...........
|...........
|...........
|...........
|...........
|G#401v64...
|...........
|...........
|...........
|...........
|...........
|...........
|...........
|F#401v64...
|...........
|...........
|...........
|...........
|...........
|...........
|...........
|===........
|...........
|...........
|...........
|...........
|...........
|...........
|...........
|F#401v64...
|...........
|...........
|...........
|...........
|...........
|...........
|...........
|C#501v64...
|...........
|...........
|...........
|...........
|...........
|...........
|...........
|A#401v64...
|...........
|...........
|...........
|...........
|...........
|...........
|...........
|A#401v64...
|...........
|...........
|...........
|...........
|...........
|...........
|...........
|G#401v64...
|...........
|...........
|...........
|...........
|...........
|...........
|...........
|G#401v64...
|...........
|...........
|...........
|...........
|...........
|...........
|...........
|F#401v64...
|...........
|...........
|...........
|...........
|...........
|...........
|...........
|F#401v64...
|...........
|...........
|...........
|...........
|...........
|...........
|...........
|D#401v64...
|...........
|...........
|...........
|...........
|...........
|...........
|...........
|...........
|...........
|...........
|...........
|...........
|...........
|...........
|...........
|C#401v64...
|...........
|...........
|...........
|...........
|...........
|...........
|...........
|...........
|...........
|...........
|...........
|...........
|...........
|...........
|...........
|...........
|...........
|...........
|...........
|...........
|...........
|===........
|...........
|...........
|...........
|...........
|...........
|...........
|...........
|...........
|...........
|...........
|...........
|...........
|...........
|...........
|...........
|...........
|...........
|F#401v64...
|...........
|...........
|...........
|...........
|...........
|...........
|...........
|F#401v64...
|...........
|...........
|...........
|...........
|...........
|...........
|...........
|C#501v64...
|...........
|...........
|...........
|...........
|...........
|...........
|...........
|A#401v64...
|...........
|...........
|...........
|...........
|...........
|...........
|...........
|A#401v64...
|...........
|...........
|...........
|...........
|...........
|...........
|...........
|G#401v64...
|...........
|...........
|...........
|...........
|...........
|...........
|...........
|G#401v64...
|...........
|...........
|...........
|...........
|...........
|...........
|...........
|F#401v64...
|...........
|...........
|...........
|...........
|...........
|...........
|...........
|F#401v64...
|...........
|...........
|...........
|...........
|...........
|...........
|...........
|B-401v64...
|...........
|...........
|...........
|...........
|...........
|...........
|...........
|...........
|...........
|...........
|...........
|...........
|...........
|...........
|...........
|A#401v64...
|...........
|...........
|...........
|...........
|...........
|...........
|...........
|A#401v64...
|...........
|...........
|...........
|...........
|...........
|...........
|...........
|G#401v64...
|...........
|...........
|...........
|...........
|...........
|...........
|...........
|G#401v64...
|...........
|...........
|...........
|...........
|...........
|...........
|...........
|F#401v64...
|...........
|...........
|...........
|...........
|...........
|...........
|...........
|F#401v64...
|...........
|...........
|...........
|...........
|...........
|...........
|...........
|C#501v64...
|...........
|...........
|...........
|...........
|...........
|...........
|...........
|...........
|...........
|...........
|...........
|...........
|...........
|...........
|...........
|A#401v64...
|...........
|...........
|...........
|...........
|...........
|...........
|...........
|A#401v64...
|...........
|...........
|...........
|...........
|...........
|...........
|...........
|G#401v64...
|...........
|...........
|...........
|...........
|...........
|...........
|...........
|...........
|...........
|...........
|...........
|...........
|...........
|...........
|...........
|F#401v64...
|...........
|...........
|...........
|...........
|...........
|...........
|...........
|F#401v64...
|...........
|...........
|...........
|...........
|...........
|...........
|...........
|G#401v64...
|...........
|...........
|...........
|...........
|...........
|...........
|...........
|...........
|...........
|...........
|...........
|...........
|...........
|...........
|...........
|D#401v64...
|...........
|...........
|...........
|...........
|...........
|...........
|...........
|...........
|...........
|...........
|...........
|...........
|...........
|...........
|...........
|...........
|...........
|...........
|...........
|...........
|...........
|===........
|...........
|...........
|...........
|...........
|...........
|...........
|...........
|...........
|...........
|...........
|...........
|...........
|...........
|...........
|...........
|...........
|...........
|F#401v64...
|...........
|...........
|...........
|...........
|...........
|...........
|...........
|...........
|...........
|...........
|...........
|F#401v64...
|...........
|...........
|...........
|F#401v64...
|...........
|...........
|...........
|...........
|...........
|...........
|...........
|F#401v64...
|...........
|...........
|...........
|...........
|...........
|...........
|...........
|F#401v64...
|...........
|...........
|...........
|F#401v64...
|...........
|...........
|...........
|F#401v64...
|...........
|...........
|...........
|F#401v64...
|...........
|...........
|...........
|F#401v64...
|...........
|...........
|...........
|...........
|...........
|...........
|...........
|F#401v64...
|...........
|...........
|...........
|...........
|...........
|...........
|...........
|F#401v64...
|...........
|...........
|...........
|F#401v64...
|...........
|...........
|...........
|===........
|...........
|...........
|...........
|...........
|...........
|...........
|...........
|F#401v64...
|...........
|...........
|...........
|...........
|...........
|...........
|...........
|F#401v64...
|...........
|...........
|...........
|F#401v64...
|...........
|...........
|...........
|F#401v64...
|...........
|...........
|...........
|...........
|...........
|...........
|...........
|F#401v64...
|...........
|...........
|...........
|F#401v64...
|...........
|...........
|...........
|F#401v64...
|...........
|...........
|...........
|F#401v64...
|...........
|...........
|...........
|F#401v64...
|...........
|...........
|...........
|...........
|...........
|...........
|...........
|A#401v64...
|...........
|...........
|...........
|F#401v64...
|...........
|...........
|...........
|===........
|...........
|...........
|...........
|...........
|...........
|...........
|...........
|A#401v64...
|...........
|...........
|...........
|C#501v64...
|...........
|...........
|...........
|C#501v64...
|...........
|...........
|...........
|...........
|...........
|...........
|...........
|C#501v64...
|...........
|...........
|...........
|...........
|...........
|...........
|...........
|B-401v64...
|...........
|...........
|...........
|B-401v64...
|...........
|...........
|...........
|A#401v64...
|...........
|...........
|...........
|...........
|...........
|...........
|...........
|A#401v64...
|...........
|...........
|...........
|...........
|...........
|...........
|...........
|A#401v64...
|...........
|...........
|...........
|...........
|...........
|...........
|...........
|===........
|...........
|...........
|...........
|C#401v64...
|...........
|...........
|...........
|A#401v64...
|...........
|...........
|...........
|...........
|...........
|...........
|...........
|F#401v64...
|...........
|...........
|...........
|...........
|...........
|...........
|...........
|F#401v64...
|...........
|...........
|...........
|...........
|...........
|...........
|...........
|F#401v64...
|...........
|...........
|...........
|D#401v64...
|...........
|...........
|...........
|F#401v64...
|...........
|...........
|...........
|...........
|...........
|...........
|...........
|F#401v64...
|...........
|...........
|...........
|...........
|...........
|...........
|...........
|D#401v64...
|...........
|...........
|...........
|C#401v64...
|...........
|...........
|...........
|===........
|...........
|...........
|...........
|...........
|...........
|...........
|...........
|A#401v64...
|...........
|...........
|...........
|C#501v64...
|...........
|...........
|...........
|...........
|...........
|...........
|...........
|A#401v64...
|...........
|...........
|...........
|D#501v64...
|...........
|...........
|...........
|...........
|...........
|...........
|...........
|A#401v64...
|...........
|...........
|...........
|C#501v64...
|...........
|...........
|...........
|...........
|...........
|...........
|...........
|A#401v64...
|...........
|...........
|...........
|D#501v64...
|...........
|...........
|...........
|...........
|...........
|...........
|...........
|A#401v64...
|...........
|...........
|...........
|C#501v64...
|...........
|...........
|...........
|...........
|...........
|...........
|...........
|B-401v64...
|...........
|...........
|...........
|...........
|...........
|...........
|...........
|A#401v64...
|...........
|...........
|...........
|...........
|...........
|...........
|...........
|G#401v64...
|...........
|...........
|...........
|...........
|...........
|...........
|...........
|G#401v64...
|...........
|...........
|...........
|...........
|...........
|...........
|...........
|F#401v64...
|...........
|...........
|...........
|G#401v64...
|...........
|...........
|...........
|...........
|...........
|...........
|...........
|F#401v64...
|...........
|...........
|...........
|...........
|...........
|...........
|...........
|===........
|...........
|...........
|...........
|...........
|...........
|...........
|...........
|...........
|...........
|...........
|...........
|C#401v64...
|...........
|...........
|...........
|F#401v64...
|...........
|...........
|...........
|F#401v64...
|...........
|...........
|...........
|F#401v64...
|...........
|...........
|...........
|...........
|...........
|...........
|...........
|F#401v64...
|...........
|...........
|...........
|F#401v64...
|...........
|...........
|...........
|F#401v64...
|...........
|...........
|...........
|...........
|...........
|...........
|...........
|F#401v64...
|...........
|...........
|...........
|...........
|...........
|...........
|...........
|===........
|...........
|...........
|...........
|...........
|...........
|...........
|...........
|...........
|...........
|...........
|...........
|...........
|...........
|...........
|...........
|...........
|...........
|...........
|...........
|C#401v64...
|...........
|...........
|...........
|A#401v64...
|...........
|...........
|...........
|F#401v64...
|...........
|...........
|...........
|F#401v64...
|...........
|...........
|...........
|...........
|...........
|...........
|...........
|F#401v64...
|...........
|...........
|...........
|D#401v64...
|...........
|...........
|...........
|D#401v64...
|...........
|...........
|...........
|...........
|...........
|...........
|...........
|D#401v64...
|...........
|...........
|...........
|...........
|...........
|...........
|...........
|...........
|...........
|...........
|...........
|...........
|...........
|===........
|...........
ModPlug Tracker  IT
|...........
|...........
|...........
|...........
|...........
|...........
|...........
|...........
|...........
|...........
|...........
|...........
|...........
|...........
|...........
|...........
|A#401v64...
|...........
|...........
|...........
|...........
|...........
|...........
|...........
|F#401v64...
|...........
|...........
|...........
|...........
|...........
|...........
|...........
|...........
|...........
|...........
|...........
|...........
|...........
|...........
|...........
|F#401v64...
|...........
|...........
|...........
|D#401v64...
|...........
|...........
|...........
|F#401v64...
|...........
|...........
|...........
|...........
|...........
|...........
|...........
|F#401v64...
|...........
|...........
|...........
|...........
|...........
|...........
|...........
|===........
|...........
|...........
|...........
|...........
|...........
|...........
|...........
|F#401v64...
|...........
|...........
|...........
|D#401v64...
|...........
|...........
|...........
|F#401v64...
|...........
|...........
|...........
|...........
|...........
|...........
|...........
|F#401v64...
|...........
|...........
|...........
|...........
|...........
|...........
|...........
|===........
|...........
|...........
|...........
|...........
|...........
|...........
|...........
|F#401v64...
|...........
|...........
|...........
|...........
|...........
|...........
|...........
|===........
|...........
|...........
|...........
|...........
|...........
|...........
|...........
|A#401v64...
|...........
|...........
|...........
|...........
|...........
|...........
|...........
|...........
|...........
|...........
|...........
|...........
|...........
|...........
|...........
|...........
|...........
|...........
|...........
|...........
|...........
|===........
|...........
|A#401v64...
|...........
|...........
|...........
|...........
|...........
|...........
|...........
|F#401v64...
|...........
|...........
|...........
|...........
|...........
|...........
|...........
|...........
|...........
|...........
|...........
|...........
|...........
|...........
|...........
|F#401v64...
|...........
|...........
|...........
|D#401v64...
|...........
|...........
|...........
|F#401v64...
|...........
|...........
|...........
|...........
|...........
|...........
|...........
|F#401v64...
|...........
|...........
|...........
|...........
|...........
|...........
|...........
|===........
|...........
|...........
|...........
|...........
|...........
|...........
|...........
|F#401v64...
|...........
|...........
|...........
|D#401v64...
|...........
|...........
|...........
|F#401v64...
|...........
|...........
|...........
|...........
|...........
|...........
|...........
|F#401v64...
|...........
|...........
|...........
|...........
|...........
|...........
|...........
|===........
|...........
|...........
|...........
|...........
|...........
|...........
|...........
|F#401v64...
|...........
|...........
|...........
|...........
|...........
|...........
|...........
|===........
|...........
|...........
|...........
|...........
|...........
|...........
|...........
|A#401v64...
|...........
|...........
|...........
|...........
|...........
|...........
|...........
|...........
|...........
|...........
|...........
|...........
|...........
|...........
|...........
|...........
|...........
|...........
|...........
|...........
|...........
|===........
|...........
|A#401v64...
|...........
|...........
|...........
|...........
|...........
|...........
|...........
|...........
|...........
|...........
|...........
|...........
|...........
|===........
|...........
|C#501v64...
|...........
|...........
|...........
|...........
|...........
|...........
|...........
|...........
|...........
|...........
|...........
|C#501v64...
|...........
|...........
|...........
|B-401v64...
|...........
|...........
|...........
|...........
|...........
|...........
|...........
|A#401v64...
|...........
|...........
|...........
|...........
|...........
|...........
|...........
|G#401v64...
|...........
|...........
|...........
|...........
|...........
|...........
|...........
|G#401v64...
|...........
|...........
|...........
|...........
|...........
|...........
|...........
|F#401v64...
|...........
|...........
|...........
|...........
|...........
|...........
|...........
|...........
|...........
|...........
|...........
|...........
|...........
|...........
|...........
|...........
|...........
|...........
|...........
|...........
|...........
|...........
|...........
|...........
|...........
|...........
|...........
|===........
|...........
|...........
|...........
|F#401v64...
|...........
|...........
|...........
|...........
|...........
|...........
|...........
|F#401v64...
|...........
|...........
|...........
|...........
|...........
|...........
|...........
|G#401v64...
|...........
|...........
|...........
|...........
|...........
|...........
|...........
|F#401v64...
|...........
|...........
|...........
|...........
|...........
|...........
|...........
|A#401v64...
|...........
|...........
|...........
|...........
|...........
|...........
|...........
|G#401v64...
|...........
|...........
|...........
|...........
|...........
|...........
|...........
|...........
|...........
|...........
|...........
|...........
|...........
|...........
|...........
|...........
|...........
|...........
|...........
|...........
|...........
|===........
|...........
|G#401v64...
|...........
|...........
|...........
|...........
|...........
|...........
|...........
|F#401v64...
|...........
|...........
|...........
|...........
|...........
|...........
|...........
|...........
|...........
|...........
|...........
|...........
|...........
|...........
|...........
|G#401v64...
|...........
|...........
|...........
|...........
|...........
|...........
|...........
|A#401v64...
|...........
|...........
|...........
|...........
|...........
|...........
|...........
|D#401v64...
|...........
|...........
|...........
|...........
|...........
|...........
|...........
|...........
|...........
|...........
|...........
|...........
|...........
|...........
|...........
|...........
|...........
|...........
|...........
|...........
|...........
|...........
|...........
|...........
|...........
|...........
|...........
|...........
|...........
|...........
|...........
|...........
|...........
|...........
|...........
|...........
|...........
|...........
|...........
|...........
|...........
|...........
|...........
|...........
|...........
|...........
|...........
|F#401v64...
|...........
|...........
|...........
|F#401v64...
|...........
|...........
|...........
|F#401v64...
|...........
|...........
|...........
|...........
|...........
|...........
|...........
|F#401v64...
|...........
|...........
|...........
|...........
|...........
|...........
|...........
|===........
|...........
|...........
|...........
|...........
|...........
|...........
|...........
|F#401v64...
|...........
|...........
|...........
|F#401v64...
|...........
|...........
|...........
|F#401v64...
|...........
|...........
|...........
|F#401v64...
|...........
|...........
|...........
|F#401v64...
|...........
|...........
|...........
|...........
|...........
|...........
|...........
|F#401v64...
|...........
|...........
|...........
|F#401v64...
|...........
|...........
|...........
|...........
|...........
|...........
|...........
|C#401v64...
|...........
|...........
|...........
|F#401v64...
|...........
|...........
|...........
|F#401v64...
|...........
|...........
|...........
|F#401v64...
|...........
|...........
|...........
|...........
|...........
|...........
|...........
|F#401v64...
|...........
|...........
|...........
|...........
|...........
|...........
|...........
|F#401v64...
|...........
|...........
|...........
|...........
|...........
|...........
|...........
|F#401v64...
|...........
|...........
|...........
|F#401v64...
|...........
|...........
|...........
|F#401v64...
|...........
|...........
|...........
|...........
|...........
|...........
|...........
|A#401v64...
|...........
|...........
|...........
|F#401v64...
|...........
|...........
|...........
|C#401v64...
|...........
|...........
|...........
|C#401v64...
|...........
|...........
|...........
|A#401v64...
|...........
|...........
|...........
|C#501v64...
|...........
|...........
|...........
|C#501v64...
|...........
|...........
|...........
|B-401v64...
|...........
|...........
|...........
|...........
|...........
|...........
|...........
|A#401v64...
|...........
|...........
|...........
|...........
|...........
|...........
|...........
|G#401v64...
|...........
|...........
|...........
|G#401v64...
|...........
|...........
|...........
|F#401v64...
|...........
|...........
|...........
|...........
|...........
|...........
|...........
|===........
|...........
|...........
|...........
|F#401v64...
|...........
|...........
|...........
|F#401v64...
|...........
|...........
|...........
|F#401v64...
|...........
|...........
|...........
|G#401v64...
|...........
|...........
|...........
|A#401v64...
|...........
|...........
|...........
|...........
|...........
|...........
|...........
|G#401v64...
|...........
|...........
|...........
|F#401v64...
|...........
|...........
|...........
|G#401v64...
|...........
|...........
|...........
|F#401v64...
|...........
|...........
|...........
|D#401v64...
|...........
|...........
|...........
|...........
|...........
|...........
|...........
|D#401v64...
|...........
|...........
|...........
|D#401v64...
|...........
|...........
|...........
|===........
|...........
|...........
|...........
|C#401v64...
|...........
|...........
|...........
|A#401v64...
|...........
|...........
|...........
|...........
|...........
|...........
|...........
|C#501v64...
|...........
|...........
|...........
|...........
|...........
|...........
|...........
|D#501v64...
|...........
|...........
|...........
|...........
|...........
|...........
|...........
|===........
|...........
|...........
|...........
|C#401v64...
|...........
|...........
|...........
|A#401v64...
|...........
|...........
|...........
|F#401v64...
|...........
|...........
|...........
|F#401v64...
|...........
|...........
|...........
|F#401v64...
|...........
|...........
|...........
|F#401v64...
|...........
|...........
|...........
|...........
|...........
|...........
|...........
|===........
|...........
|...........
|...........
|C#401v64...
|...........
|...........
|...........
|F#401v64...
|...........
|...........
|...........
|G#401v64...
|...........
|...........
|...........
|A#401v64...
|...........
|...........
|...........
|C#501v64...
|...........
|...........
|...........
|B-401v64...
|...........
|...........
|...........
|...........
|...........
|...........
|...........
|A#401v64...
|...........
|...........
|...........
|G#401v64...
|...........
|...........
|...........
|A#401v64...
|...........
|...........
|...........
|G#401v64...
|...........
|...........
|...........
|D#401v64...
|...........
|...........
|...........
|...........
|...........
|...........
|...........
|D#401v64...
|...........
|...........
|...........
|...........
|...........
|...........
|...........
|===........
|...........
|...........
|...........
|C#401v64...
|...........
|...........
|...........
|D#501v64...
|...........
|...........
|...........
|...........
|...........
|...........
|...........
|C#501v64...
|...........
|...........
|...........
|...........
|...........
|...........
|...........
|C#501v64...
|...........
|...........
|...........
|C#501v64...
|...........
|...........
|...........
|===........
|...........
|...........
|...........
|...........
|...........
|...........
|...........
|A#401v64...
|...........
|...........
|...........
|F#401v64...
|...........
|...........
|...........
|...........
|...........
|...........
|...........
|F#401v64...
|...........
|...........
|...........
|...........
|...........
|...........
|...........
|===........
|...........
|...........
|...........
|...........
|...........
|...........
|...........
|...........
|...........
|...........
|...........
|F#401v64...
|...........
|...........
|...........
|F#401v64...
|...........
|...........
|...........
|F#401v64...
|...........
|...........
|...........
|G#401v64...
|...........
|...........
|...........
|A#401v64...
|...........
|...........
|...........
|F#401v64...
|...........
|...........
|...........
|F#401v64...
|...........
|...........
|...........
|G#401v64...
|...........
|...........
|...........
|A#401v64...
|...........
|...........
|...........
|F#401v64...
|...........
|...........
|...........
|D#401v64...
|...........
|...........
|...........
|...........
|...........
|...........
|...........
|D#401v64...
|...........
|...........
|...........
|...........
|...........
|...........
|...........
|...........
|...........
|...........
|...........
|...........
|...........
|===........
|...........
ModPlug Tracker  IT
|...........
|...........
|...........
|...........
|...........
|...........
|...........
|...........
|...........
|...........
|...........
|...........
|...........
|...........
|...........
|...........
|A#401v64...
|...........
|...........
|...........
|...........
|...........
|...........
|...........
|F#401v64...
|...........
|...........
|...........
|...........
|...........
|...........
|...........
|...........
|...........
|...........
|...........
|...........
|...........
|...........
|...........
|F#401v64...
|...........
|...........
|...........
|D#401v64...
|...........
|...........
|...........
|F#401v64...
|...........
|...........
|...........
|...........
|...........
|...........
|...........
|F#401v64...
|...........
|...........
|...........
|...........
|...........
|...........
|...........
|===........
|...........
|...........
|...........
|...........
|...........
|...........
|...........
|F#401v64...
|...........
|...........
|...........
|D#401v64...
|...........
|...........
|...........
|F#401v64...
|...........
|...........
|...........
|...........
|...........
|...........
|...........
|F#401v64...
|...........
|...........
|...........
|...........
|...........
|...........
|...........
|===........
|...........
|...........
|...........
|...........
|...........
|...........
|...........
|F#401v64...
|...........
|...........
|...........
|...........
|...........
|...........
|...........
|===........
|...........
|...........
|...........
|...........
|...........
|...........
|...........
|A#401v64...
|...........
|...........
|...........
|...........
|...........
|...........
|...........
|...........
|...........
|...........
|...........
|...........
|...........
|...........
|...........
|...........
|...........
|...........
|...........
|...........
|...........
|===........
|...........
|A#401v64...
|...........
|...........
|...........
|...........
|...........
|...........
|...........
|F#401v64...
|...........
|...........
|...........
|...........
|...........
|...........
|...........
|...........
|...........
|...........
|...........
|...........
|...........
|...........
|...........
|F#401v64...
|...........
|...........
|...........
|D#401v64...
|...........
|...........
|...........
|F#401v64...
|...........
|...........
|...........
|...........
|...........
|...........
|...........
|F#401v64...
|...........
|...........
|...........
|...........
|...........
|...........
|...........
|===........
|...........
|...........
|...........
|...........
|...........
|...........
|...........
|F#401v64...
|...........
|...........
|...........
|D#401v64...
|...........
|...........
|...........
|F#401v64...
|...........
|...........
|...........
|...........
|...........
|...........
|...........
|F#401v64...
|...........
|...........
|...........
|...........
|...........
|...........
|...........
|===........
|...........
|...........
|...........
|...........
|...........
|...........
|...........
|F#401v64...
|...........
|...........
|...........
|...........
|...........
|...........
|...........
|===........
|...........
|...........
|...........
|...........
|...........
|...........
|...........
|A#401v64...
|...........
|...........
|...........
|...........
|...........
|...........
|...........
|...........
|...........
|...........
|...........
|...........
|...........
|...........
|...........
|...........
|...........
|...........
|...........
|...........
|...........
|===........
|...........
|A#401v64...
|...........
|...........
|...........
|...........
|...........
|...........
|...........
|...........
|...........
|...........
|...........
|...........
|...........
|===........
|...........
|C#501v64...
|...........
|...........
|...........
|...........
|...........
|...........
|...........
|...........
|...........
|...........
|...........
|C#501v64...
|...........
|...........
|...........
|B-401v64...
|...........
|...........
|...........
|...........
|...........
|...........
|...........
|A#401v64...
|...........
|...........
|...........
|...........
|...........
|...........
|...........
|G#401v64...
|...........
|...........
|...........
|...........
|...........
|...........
|...........
|G#401v64...
|...........
|...........
|...........
|...........
|...........
|...........
|...........
|F#401v64...
|...........
|...........
|...........
|...........
|...........
|...........
|...........
|...........
|...........
|...........
|...........
|...........
|...........
|...........
|...........
|...........
|...........
|...........
|...........
|...........
|...........
|...........
|...........
|...........
|...........
|...........
|...........
|===........
|...........
|...........
|...........
|F#401v64...
|...........
|...........
|...........
|...........
|...........
|...........
|...........
|F#401v64...
|...........
|...........
|...........
|...........
|...........
|...........
|...........
|G#401v64...
|...........
|...........
|...........
|...........
|...........
|...........
|...........
|F#401v64...
|...........
|...........
|...........
|...........
|...........
|...........
|...........
|A#401v64...
|...........
|...........
|...........
|...........
|...........
|...........
|...........
|G#401v64...
|...........
|...........
|...........
|...........
|...........
|...........
|...........
|...........
|...........
|...........
|...........
|...........
|...........
|...........
|...........
|...........
|...........
|...........
|...........
|...........
|...........
|===........
|...........
|G#401v64...
|...........
|...........
|...........
|...........
|...........
|...........
|...........
|F#401v64...
|...........
|...........
|...........
|...........
|...........
|...........
|...........
|...........
|...........
|...........
|...........
|...........
|...........
|...........
|...........
|G#401v64...
|...........
|...........
|...........
|...........
|...........
|...........
|...........
|A#401v64...
|...........
|...........
|...........
|...........
|...........
|...........
|...........
|D#401v64...
|...........
|...........
|...........
|...........
|...........
|...........
|...........
|...........
|...........
|...........
|...........
|...........
|...........
|...........
|...........
|...........
|...........
|...........
|...........
|...........
|...........
|...........
|...........
|...........
|...........
|...........
|...........
|...........
|...........
|...........
|...........
|...........
|...........
|...........
|...........
|...........
|...........
|...........
|...........
|...........
|...........
|...........
|...........
|...........
|...........
|...........
|...........
|...........
|...........
|===........
|...........
|===........
|...........
|...........
|...........
|...........
|...........
|...........
|...........
|...........
|...........
|...........
|...........
|...........
|...........
|...........
|...........
|...........
|...........
|...........
|...........
|...........
|...........
|...........
|...........
|...........
|...........
|...........
|...........
|...........
|...........
|...........
|...........
|...........
|...........
|...........
|...........
|...........
|...........
|...........
|...........
|...........
|...........
|...........
|...........
|...........
|...........
|...........
|...........
|...........
|...........
|...........
|...........
|...........
|...........
|...........
|...........
|...........
|...........
|...........
|...........
|...........
|...........
|...........
|...........
|...........
|...........
|...........
|...........
|...........
|...........
|...........
|...........
|...........
|...........
|...........
|...........
|...........
|...........
|...........
|...........
|...........
|...........
|...........
|...........
|...........
|...........
|...........
|...........
|...........
|...........
|...........
|...........
|...........
|...........
|...........
|...........
|...........
|...........
|...........
|...........
|...........
|...........
|...........
|...........
|...........
|...........
|...........
|...........
|...........
|...........
|...........
|...........
|...........
|...........
|...........
|...........
|...........
|...........
|...........
|...........
|...........
|...........
|...........
|...........
|...........
|...........
|...........
|...........
|...........
|...........
|...........
|...........
|...........
|...........
|...........
|...........
|...........
|...........
|...........
|...........
|...........
|...........
|...........
|...........
|...........
|...........
|...........
|...........
|...........
|...........
|...........
|...........
|...........
|...........
|...........
|...........
|...........
|...........
|...........
|...........
|...........
|...........
|...........
|...........
|...........
|...........
|...........
|...........
|...........
|...........
|...........
|...........
|...........
|...........
|...........
|...........
|...........
|...........
|...........
|...........
|...........
|...........
|...........
|...........
|...........
|...........
|...........
|...........
|...........
|...........
|...........
|...........
|...........
|...........
|...........
|...........
|...........
|...........
|...........
|...........
|...........
|...........
|...........
|...........
|...........
|...........
|...........
|...........
|...........
|...........
|...........
|...........
|...........
|...........
|...........
|...........
|...........
|...........
|...........
|...........
|...........
|...........
|...........
|...........
|...........
|...........
|...........
|...........
|...........
|...........
|...........
|...........
|...........
|...........
|...........
|...........
|...........
|...........
|...........
|...........
|...........
|...........
|...........
|...........
|...........
|...........
|...........
|...........
|...........
|...........
|...........
|...........
|...........
|...........
|...........
|...........
|...........
|...........
|...........
|...........
|...........
|...........
|...........
|...........
|...........
|...........
|...........
|...........
|...........
|...........
|...........
|...........
|...........
|...........
|...........
|...........
|...........
|...........
|...........
|...........
|...........
|...........
|...........
|...........
|...........
|...........
|...........
|...........
|...........
|...........
|...........
|...........
|...........
|...........
|...........
|...........
|...........
|...........
|...........
|...........
|...........
|...........
|...........
|...........
|...........
|...........
|...........
|...........
|...........
|...........
|...........
|...........
|...........
|...........
|...........
|...........
|...........
|...........
|...........
|...........
|...........
|...........
|...........
|...........
|...........
|...........
|...........
|...........
|...........
|...........
|...........
|...........
|...........
|...........
|...........
|...........
|...........
|...........
|...........
|...........
|...........
|...........
|...........
|...........
|...........
|...........
|...........
|...........
|...........
|...........
|...........
|...........
|...........
|...........
|...........
|...........
|...........
|...........
|...........
|...........
|...........
|...........
|...........
|...........
|...........
|...........
|...........
|...........
|...........
|...........
|...........
|...........
|...........
|...........
|...........
|...........
|...........
|...........
|...........
|...........
|...........
|...........
|...........
|...........
|...........
|...........
|...........
|...........
|...........
|...........
|...........
|...........
|...........
|...........
|...........
|...........
|...........
|...........
|...........
|...........
|...........
|...........
|...........
|...........
|...........
|...........
|...........
|...........
|...........
|...........
|...........
|...........
|...........
|...........
|...........
|...........
|...........
|...........
|...........
|...........
|...........
|...........
|...........
|...........
|...........
|...........
|...........
|...........
|...........
|...........
|...........
|...........
|...........
|...........
|...........
|...........
|...........
|...........
|...........
|...........
|...........
|...........
|...........
|...........
|...........
|...........
|...........
|...........
|...........
|...........
|...........
|...........
|...........
|...........
|...........
|...........
|...........
|...........
|...........
|...........
|...........
|...........
|...........
|...........
|...........
|...........
|...........
|...........
|...........
|...........
|...........
|...........
|...........
|...........
|...........
|...........
|...........
|...........
|...........
|...........
|...........
|...........
|...........
|...........
|...........
|...........
|...........
|...........
|...........
|...........
|...........
|...........
|...........
|...........
|...........
|...........
|...........
|...........
|...........
|...........
ModPlug Tracker  IT
|D#312v64...
|...........
|...........
|...........
|...........
|...........
|...........
|...........
|...........
|...........
|...........
|...........
|F-312v64...
|...........
|...........
|...........
|F#312v64...
|...........
|...........
|...........
|...........
|...........
|...........
|...........
|F#312v64...
|...........
|...........
|...........
|...........
|...........
|...........
|...........
|F#312v64...
|...........
|...........
|...........
|...........
|...........
|...........
|...........
|F#312v64...
|...........
|...........
|...........
|...........
|...........
|...........
|...........
|B-312v64...
|...........
|...........
|...........
|...........
|...........
|...........
|...........
|B-312v64...
|...........
|...........
|...........
|...........
|...........
|...........
|...........
|B-312v64...
|...........
|...........
|...........
|...........
|...........
|...........
|...........
|B-312v64...
|...........
|...........
|...........
|...........
|...........
|...........
|...........
|C-412v64...
|...........
|...........
|...........
|...........
|...........
|...........
|...........
|C-412v64...
|...........
|...........
|...........
|...........
|...........
|...........
|...........
|C-412v64...
|...........
|...........
|...........
|...........
|...........
|...........
|...........
|C-412v64...
|...........
|...........
|...........
|...........
|...........
|...........
|...........
|B-312v64...
|...........
|...........
|...........
|...........
|...........
|...........
|...........
|B-312v64...
|...........
|...........
|...........
|...........
|...........
|...........
|...........
|B-312v64...
|...........
|...........
|...........
|...........
|...........
|...........
|...........
|B-312v64...
|...........
|...........
|...........
|...........
|...........
|...........
|...........
|F#312v64...
|...........
|...........
|...........
|...........
|...........
|...........
|...........
|F#312v64...
|...........
|...........
|...........
|...........
|...........
|...........
|...........
|F#312v64...
|...........
|...........
|...........
|...........
|...........
|...........
|...........
|F#312v64...
|...........
|...........
|...........
|...........
|...........
|...........
|...........
|B-312v64...
|...........
|...........
|...........
|...........
|...........
|...........
|...........
|B-312v64...
|...........
|...........
|...........
|...........
|...........
|...........
|...........
|B-312v64...
|...........
|...........
|...........
|...........
|...........
|...........
|...........
|B-312v64...
|...........
|...........
|...........
|...........
|...........
|...........
|...........
|C-412v64...
|...........
|...........
|...........
|...........
|...........
|...........
|...........
|C-412v64...
|...........
|...........
|...........
|...........
|...........
|...........
|...........
|C-412v64...
|...........
|...........
|...........
|...........
|...........
|...........
|...........
|C-412v64...
|...........
|...........
|...........
|...........
|...........
|...........
|...........
|B-312v64...
|...........
|...........
|...........
|...........
|...........
|...........
|...........
|B-312v64...
|...........
|...........
|...........
|...........
|...........
|...........
|...........
|B-312v64...
|...........
|...........
|...........
|...........
|...........
|...........
|...........
|B-312v64...
|...........
|...........
|...........
|...........
|...........
|...........
|...........
|F#312v64...
|...........
|...........
|...........
|...........
|...........
|...........
|...........
|F#312v64...
|...........
|...........
|...........
|...........
|...........
|...........
|...........
|F#312v64...
|...........
|...........
|...........
|...........
|...........
|...........
|...........
|F#312v64...
|...........
|...........
|...........
|...........
|...........
|...........
|...........
|B-312v64...
|...........
|...........
|...........
|...........
|...........
|...........
|...........
|B-312v64...
|...........
|...........
|...........
|...........
|...........
|...........
|...........
|B-312v64...
|...........
|...........
|...........
|...........
|...........
|...........
|...........
|B-312v64...
|...........
|...........
|...........
|...........
|...........
|...........
|...........
|C-412v64...
|...........
|...........
|...........
|...........
|...........
|...........
|...........
|C-412v64...
|...........
|...........
|...........
|...........
|...........
|...........
|...........
|C-412v64...
|...........
|...........
|...........
|...........
|...........
|...........
|...........
|C-412v64...
|...........
|...........
|...........
|...........
|...........
|...........
|...........
|B-312v64...
|...........
|...........
|...........
|...........
|...........
|...........
|...........
|B-312v64...
|...........
|...........
|...........
|...........
|...........
|...........
|...........
|B-312v64...
|...........
|...........
|...........
|...........
|...........
|...........
|...........
|B-312v64...
|...........
|...........
|...........
|...........
|...........
|...........
|...........
|F#312v64...
|...........
|...........
|...........
|...........
|...........
|...........
|...........
|F#312v64...
|...........
|...........
|...........
|...........
|...........
|...........
|...........
|F#312v64...
|...........
|...........
|...........
|...........
|...........
|...........
|...........
|F#312v64...
|...........
|...........
|...........
|...........
|...........
|...........
|...........
|E-312v64...
|...........
|...........
|...........
|...........
|...........
|...........
|...........
|E-312v64...
|...........
|...........
|...........
|...........
|...........
|...........
|...........
|E-312v64...
|...........
|...........
|...........
|...........
|...........
|...........
|...........
|E-312v64...
|...........
|...........
|...........
|...........
|...........
|...........
|...........
|===........
|...........
|...........
|...........
|...........
|...........
|...........
|...........
|...........
|...........
|...........
|...........
|...........
|...........
|...........
|...........
|...........
|...........
|...........
|...........
|...........
|...........
|...........
|...........
|...........
|...........
|...........
|...........
|...........
|...........
|...........
|...........
|...........
|...........
|...........
|...........
|...........
|...........
|...........
|...........
|...........
|...........
|...........
|...........
|...........
|...........
|...........
|...........
|...........
|...........
|...........
|...........
|...........
|...........
|...........
|...........
|...........
|...........
|...........
|...........
|...........
|...........
|...........
|...........
|...........
|...........
|...........
|...........
|...........
|...........
|...........
|...........
|...........
|...........
|...........
|...........
|...........
|...........
|...........
|...........
|...........
|...........
|...........
|...........
|...........
|...........
|...........
|...........
|...........
|...........
|...........
|...........
|...........
|...........
|...........
|...........
|...........
|...........
|...........
|...........
|...........
|...........
|...........
|...........
|...........
|...........
|...........
|...........
|...........
|...........
|...........
|...........
|...........
|...........
|...........
|...........
|...........
|...........
|...........
|...........
|...........
|...........
|...........
|...........
|...........
|...........
|...........
|...........
|...........
|...........
|...........
|...........
|...........
|...........
|...........
|...........
|...........
|...........
|...........
|...........
|...........
|...........
|...........
|...........
|...........
|...........
|...........
|...........
|...........
|...........
|...........
|...........
|...........
|...........
|...........
|...........
|...........
|...........
|...........
|...........
|...........
|...........
|...........
|...........
|...........
|...........
|...........
|...........
|...........
|...........
|...........
|...........
|...........
|...........
|...........
|...........
|...........
|...........
|...........
|...........
|...........
|...........
|...........
|...........
|...........
|...........
|...........
|...........
|...........
|...........
|...........
|...........
|...........
|...........
|...........
|...........
|...........
|...........
|...........
|...........
|...........
|...........
|...........
|...........
|...........
|...........
|...........
|...........
|...........
|...........
|...........
|...........
|...........
|...........
|...........
|...........
|...........
|...........
|...........
|...........
|...........
|...........
|...........
|...........
|...........
|...........
|...........
|...........
|...........
|...........
|...........
|...........
|...........
|...........
|...........
|...........
|...........
|...........
|...........
|...........
|...........
|...........
|...........
|...........
|...........
|...........
|...........
|...........
|...........
|...........
|...........
|...........
|...........
|...........
|...........
|...........
|...........
|...........
|...........
|...........
|...........
|...........
|...........
|...........
|...........
|...........
|...........
|...........
|...........
|...........
|...........
|...........
|...........
|...........
|...........
|...........
|...........
|...........
|...........
|...........
|...........
|...........
|...........
|...........
|...........
|...........
|...........
|...........
|...........
|...........
|...........
|...........
|...........
|...........
|...........
|...........
|...........
|...........
|...........
|...........
|...........
|...........
|...........
|...........
|...........
|...........
|...........
|...........
|...........
|...........
|...........
|...........
|...........
|...........
|...........
|...........
|...........
|...........
|...........
|...........
|...........
|...........
|...........
|...........
|...........
|...........
|...........
|...........
|...........
|...........
|...........
|...........
|...........
|...........
|...........
|...........
|...........
|...........
|...........
|...........
|...........
|...........
|...........
|...........
|...........
|...........
|...........
|...........
|...........
|...........
|...........
|...........
|...........
|...........
|...........
|...........
|...........
|...........
|...........
|...........
|...........
|...........
|...........
|...........
|...........
|...........
|...........
|...........
|...........
|...........
|...........
|...........
|...........
|...........
|...........
|...........
|...........
|...........
|...........
|...........
|...........
|...........
|...........
|...........
|...........
|...........
|...........
|...........
|...........
|...........
|...........
|...........
|...........
|...........
|...........
|...........
|...........
|...........
|...........
|...........
|...........
|...........
|...........
|...........
|...........
|...........
|...........
|...........
|...........
|...........
|...........
|...........
|...........
|...........
|...........
|...........
|...........
|...........
|...........
|...........
|...........
|...........
|...........
|...........
|...........
|...........
|...........
|...........
|...........
|...........
|...........
|...........
|...........
|...........
|...........
|...........
|...........
|...........
|...........
|...........
|...........
|...........
|...........
|...........
|...........
|...........
|...........
|...........
|...........
|...........
|...........
|...........
|...........
|...........
|...........
|...........
|...........
|...........
|...........
|...........
|...........
|...........
|...........
|...........
|...........
|...........
|...........
|...........
|...........
|...........
|...........
|...........
|...........
|...........
|...........
|...........
|...........
|...........
|...........
|...........
|...........
|...........
|...........
|...........
|...........
|...........
|...........
|...........
|...........
|...........
|...........
|...........
|...........
|...........
|...........
|...........
|...........
|...........
|...........
|...........
|...........
|...........
|...........
|...........
|...........
|...........
|...........
|...........
|...........
|...........
|...........
|...........
|...........
|...........
|...........
|...........
|...........
|...........
|...........
|...........
|...........
|...........
|...........
|...........
|...........
|...........
|...........
|...........
|...........
|...........
|...........
|...........
|...........
|...........
|...........
|...........
|...........
|...........
|...........
|...........
|...........
|...........
|...........
|...........
|...........
|...........
|...........
|...........
|...........
|...........
|...........
|...........
|...........
|...........
|...........
|...........
|...........
|...........
|...........
|...........
ModPlug Tracker  IT
|...........
|...........
|...........
|...........
|...........
|...........
|...........
|...........
|...........
|...........
|...........
|...........
|...........
|...........
|...........
|...........
|...........
|...........
|...........
|...........
|...........
|...........
|...........
|...........
|...........
|...........
|...........
|...........
|...........
|...........
|...........
|...........
|...........
|...........
|...........
|...........
|...........
|...........
|...........
|...........
|...........
|...........
|...........
|...........
|...........
|...........
|...........
|...........
|...........
|...........
|...........
|...........
|...........
|...........
|...........
|...........
|...........
|...........
|...........
|...........
|...........
|...........
|...........
|...........
|...........
|...........
|...........
|...........
|...........
|...........
|...........
|...........
|...........
|...........
|...........
|...........
|...........
|...........
|...........
|...........
|...........
|...........
|...........
|...........
|...........
|...........
|...........
|...........
|...........
|...........
|...........
|...........
|...........
|...........
|...........
|...........
|...........
|...........
|...........
|...........
|...........
|...........
|...........
|...........
|...........
|...........
|...........
|...........
|...........
|...........
|...........
|...........
|...........
|...........
|...........
|...........
|...........
|...........
|...........
|...........
|...........
|...........
|...........
|...........
|...........
|...........
|...........
|...........
|...........
|...........
|...........
|...........
|...........
|...........
|...........
|...........
|...........
|...........
|...........
|...........
|...........
|...........
|...........
|...........
|...........
|...........
|...........
|...........
|...........
|...........
|...........
|...........
|...........
|...........
|...........
|...........
|...........
|...........
|...........
|...........
|...........
|...........
|...........
|...........
|...........
|...........
|...........
|...........
|...........
|...........
|...........
|...........
|...........
|...........
|...........
|...........
|...........
|...........
|...........
|...........
|...........
|...........
|...........
|...........
|...........
|...........
|...........
|...........
|...........
|...........
|...........
|...........
|...........
|...........
|...........
|...........
|...........
|...........
|...........
|...........
|...........
|...........
|...........
|...........
|...........
|...........
|...........
|...........
|...........
|...........
|...........
|...........
|...........
|...........
|...........
|...........
|...........
|...........
|...........
|...........
|...........
|...........
|...........
|...........
|...........
|...........
|...........
|...........
|...........
|...........
|...........
|...........
|...........
|...........
|...........
|...........
|...........
|...........
|...........
|...........
|...........
|...........
|...........
|...........
|...........
|...........
|...........
|...........
|...........
|...........
|...........
|...........
|...........
|...........
|...........
|...........
|...........
|...........
|...........
|...........
|...........
|...........
|...........
|...........
|...........
|...........
|...........
|...........
|...........
|...........
|...........
|...........
|...........
|...........
|...........
|...........
|...........
|...........
|...........
|...........
|...........
|...........
|...........
|...........
|...........
|...........
|...........
|...........
|...........
|...........
|...........
|...........
|...........
|...........
|...........
|...........
|...........
|...........
|...........
|...........
|...........
|...........
|...........
|...........
|...........
|...........
|...........
|...........
|...........
|...........
|...........
|...........
|...........
|...........
|...........
|...........
|...........
|...........
|...........
|...........
|...........
|...........
|...........
|...........
|...........
|...........
|...........
|...........
|...........
|...........
|...........
|...........
|...........
|...........
|...........
|...........
|...........
|...........
|...........
|...........
|...........
|...........
|...........
|...........
|...........
|...........
|...........
|...........
|...........
|...........
|...........
|...........
|...........
|...........
|...........
|...........
|...........
|...........
|...........
|...........
|...........
|...........
|...........
|...........
|...........
|...........
|...........
|...........
|...........
|...........
|...........
|...........
|...........
|...........
|...........
|...........
|...........
|...........
|...........
|...........
|...........
|...........
|...........
|...........
|...........
|...........
|...........
|...........
|...........
|...........
|...........
|...........
|...........
|...........
|...........
|...........
|...........
|...........
|...........
|...........
|...........
|...........
|...........
|...........
|...........
|...........
|...........
|...........
|...........
|...........
|...........
|...........
|...........
|...........
|...........
|...........
|...........
|...........
|...........
|...........
|...........
|...........
|...........
|...........
|...........
|...........
|...........
|...........
|...........
|...........
|...........
|...........
|...........
|...........
|...........
|...........
|...........
|...........
|...........
|...........
|...........
|...........
|...........
|...........
|...........
|...........
|...........
|...........
|D#312v64...
|...........
|...........
|...........
|...........
|...........
|...........
|...........
|...........
|...........
|...........
|...........
|F-312v64...
|...........
|...........
|...........
|F#312v64...
|...........
|...........
|...........
|...........
|...........
|...........
|...........
|F#312v64...
|...........
|...........
|...........
|...........
|...........
|...........
|...........
|F#312v64...
|...........
|...........
|...........
|...........
|...........
|...........
|...........
|F#312v64...
|...........
|...........
|...........
|...........
|...........
|...........
|...........
|B-312v64...
|...........
|...........
|...........
|...........
|...........
|...........
|...........
|B-312v64...
|...........
|...........
|...........
|...........
|...........
|...........
|...........
|B-312v64...
|...........
|...........
|...........
|...........
|...........
|...........
|...........
|B-312v64...
|...........
|...........
|...........
|...........
|...........
|...........
|...........
|C-412v64...
|...........
|...........
|...........
|...........
|...........
|...........
|...........
|C-412v64...
|...........
|...........
|...........
|...........
|...........
|...........
|...........
|C-412v64...
|...........
|...........
|...........
|...........
|...........
|...........
|...........
|C-412v64...
|...........
|...........
|...........
|...........
|...........
|...........
|...........
|B-312v64...
|...........
|...........
|...........
|...........
|...........
|...........
|...........
|B-312v64...
|...........
|...........
|...........
|...........
|...........
|...........
|...........
|B-312v64...
|...........
|...........
|...........
|...........
|...........
|...........
|...........
|B-312v64...
|...........
|...........
|...........
|...........
|...........
|...........
|...........
|F#312v64...
|...........
|...........
|...........
|...........
|...........
|...........
|...........
|F#312v64...
|...........
|...........
|...........
|...........
|...........
|...........
|...........
|F#312v64...
|...........
|...........
|...........
|...........
|...........
|...........
|...........
|F#312v64...
|...........
|...........
|...........
|...........
|...........
|...........
|...........
|B-312v64...
|...........
|...........
|...........
|...........
|...........
|...........
|...........
|B-312v64...
|...........
|...........
|...........
|...........
|...........
|...........
|...........
|B-312v64...
|...........
|...........
|...........
|...........
|...........
|...........
|...........
|B-312v64...
|...........
|...........
|...........
|...........
|...........
|...........
|...........
|C-412v64...
|...........
|...........
|...........
|...........
|...........
|...........
|...........
|C-412v64...
|...........
|...........
|...........
|...........
|...........
|...........
|...........
|C-412v64...
|...........
|...........
|...........
|...........
|...........
|...........
|...........
|C-412v64...
|...........
|...........
|...........
|...........
|...........
|...........
|...........
|B-312v64...
|...........
|...........
|...........
|...........
|...........
|...........
|...........
|B-312v64...
|...........
|...........
|...........
|...........
|...........
|...........
|...........
|B-312v64...
|...........
|...........
|...........
|...........
|...........
|...........
|...........
|B-312v64...
|...........
|...........
|...........
|...........
|...........
|...........
|...........
|F#312v64...
|...........
|...........
|...........
|...........
|...........
|...........
|...........
|F#312v64...
|...........
|...........
|...........
|...........
|...........
|...........
|...........
|F#312v64...
|...........
|...........
|...........
|...........
|...........
|...........
|...........
|F#312v64...
|...........
|...........
|...........
|...........
|...........
|...........
|...........
|B-312v64...
|...........
|...........
|...........
|...........
|...........
|...........
|...........
|B-312v64...
|...........
|...........
|...........
|...........
|...........
|...........
|...........
|B-312v64...
|...........
|...........
|...........
|...........
|...........
|...........
|...........
|B-312v64...
|...........
|...........
|...........
|...........
|...........
|...........
|...........
|C-412v64...
|...........
|...........
|...........
|...........
|...........
|...........
|...........
|C-412v64...
|...........
|...........
|...........
|...........
|...........
|...........
|...........
|C-412v64...
|...........
|...........
|...........
|...........
|...........
|...........
|...........
|C-412v64...
|...........
|...........
|...........
|...........
|...........
|...........
|...........
|B-312v64...
|...........
|...........
|...........
|...........
|...........
|...........
|...........
|B-312v64...
|...........
|...........
|...........
|...........
|...........
|...........
|...........
|B-312v64...
|...........
|...........
|...........
|...........
|...........
|...........
|...........
|B-312v64...
|...........
|...........
|...........
|...........
|...........
|...........
|...........
|F#312v64...
|...........
|...........
|...........
|...........
|...........
|...........
|...........
|F#312v64...
|...........
|...........
|...........
|...........
|...........
|...........
|...........
|F#312v64...
|...........
|...........
|...........
|...........
|...........
|...........
|...........
|F#312v64...
|...........
|...........
|...........
|...........
|...........
|...........
|...........
|B-312v64...
|...........
|...........
|...........
|...........
|...........
|...........
|...........
|B-312v64...
|...........
|...........
|...........
|...........
|...........
|...........
|...........
|B-312v64...
|...........
|...........
|...........
|...........
|...........
|...........
|...........
|B-312v64...
|...........
|...........
|...........
|...........
|...........
|...........
|...........
|C-412v64...
|...........
|...........
|...........
|...........
|...........
|...........
|...........
|C-412v64...
|...........
|...........
|...........
|...........
|...........
|...........
|...........
|C-412v64...
|...........
|...........
|...........
|...........
|...........
|...........
|...........
|C-412v64...
|...........
|...........
|...........
|...........
|...........
|...........
|...........
|B-312v64...
|...........
|...........
|...........
|...........
|...........
|...........
|...........
|B-312v64...
|...........
|...........
|...........
|...........
|...........
|...........
|...........
|B-312v64...
|...........
|...........
|...........
|...........
|...........
|...........
|...........
|B-312v64...
|...........
|...........
|...........
|...........
|...........
|...........
|...........
|F#312v64...
|...........
|...........
|...........
|...........
|...........
|...........
|...........
|F#312v64...
|...........
|...........
|...........
|...........
|...........
|...........
|...........
|F#312v64...
|...........
|...........
|...........
|...........
|...........
|...........
|...........
|F#312v64...
|...........
|...........
|...........
|...........
|...........
|...........
|...........
|B-312v64...
|...........
|...........
|...........
|...........
|...........
|...........
|...........
|B-312v64...
|...........
|...........
|...........
|...........
|...........
|...........
|...........
ModPlug Tracker  IT
|B-312v64...
|...........
|...........
|...........
|...........
|...........
|...........
|...........
|B-312v64...
|...........
|...........
|...........
|...........
|...........
|...........
|...........
|C-412v64...
|...........
|...........
|...........
|...........
|...........
|...........
|...........
|C-412v64...
|...........
|...........
|...........
|...........
|...........
|...........
|...........
|C-412v64...
|...........
|...........
|...........
|...........
|...........
|...........
|...........
|C-412v64...
|...........
|...........
|...........
|...........
|...........
|...........
|...........
|B-312v64...
|...........
|...........
|...........
|...........
|...........
|...........
|...........
|B-312v64...
|...........
|...........
|...........
|...........
|...........
|...........
|...........
|B-312v64...
|...........
|...........
|...........
|...........
|...........
|...........
|...........
|B-312v64...
|...........
|...........
|...........
|...........
|...........
|...........
|...........
|F#312v64...
|...........
|...........
|...........
|...........
|...........
|...........
|...........
|F#312v64...
|...........
|...........
|...........
|...........
|...........
|...........
|...........
|F#312v64...
|...........
|...........
|...........
|...........
|...........
|...........
|...........
|F#312v64...
|...........
|...........
|...........
|...........
|...........
|...........
|...........
|E-312v64...
|...........
|...........
|...........
|...........
|...........
|...........
|...........
|E-312v64...
|...........
|...........
|...........
|...........
|...........
|...........
|...........
|E-312v64...
|...........
|...........
|...........
|...........
|...........
|...........
|...........
|E-312v64...
|...........
|...........
|...........
|...........
|...........
|...........
|...........
|F#312v64...
|...........
|...........
|...........
|...........
|...........
|...........
|...........
|...........
|...........
|...........
|...........
|...........
|...........
|...........
|...........
|...........
|...........
|...........
|...........
|...........
|...........
|...........
|...........
|...........
|...........
|...........
|...........
|...........
|...........
|...........
|...........
|...........
|...........
|...........
|...........
|...........
|...........
|...........
|...........
|...........
|...........
|...........
|...........
|...........
|...........
|...........
|...........
|...........
|...........
|===........
|...........
|...........
|...........
|...........
|...........
|...........
|...........
|...........
|...........
|===........
|...........
|...........
|...........
|...........
|...........
|...........
|...........
|...........
|...........
|...........
|...........
|...........
|...........
|...........
|...........
|...........
|...........
|...........
|...........
|...........
|...........
|...........
|...........
|...........
|...........
|...........
|...........
|...........
|...........
|...........
|...........
|...........
|...........
|...........
|...........
|...........
|...........
|...........
|...........
|...........
|...........
|...........
|...........
|...........
|...........
|...........
|...........
|...........
|...........
|...........
|...........
