ModPlug Tracker MPT
|G-301v48...
|...........
|...........
|===........
|G-401v48...
|...........
|...........
|===........
|G-401v48...
|...........
|...........
|===........
|G-401v48...
|...........
|...........
|===........
|G-401v48...
|...........
|...........
|===........
|G-401v48...
|...........
|...........
|===........
|G-401v48...
|...........
|...........
|===........
|G-401v48...
|...........
|...........
|===........
|G-401v48...
|...........
|...........
|===........
|G-401v48...
|...........
|...........
|===........
|G-401v48...
|...........
|...........
|===........
|G-401v48...
|...........
|...........
|===........
|G-401v48...
|...........
|...........
|===........
|G-401v48...
|...........
|...........
|===........
|G-401v48...
|...........
|...........
|===........
|G-401v48...
|...........
|...........
|===........
|A#401v48...
|...........
|...........
|===........
|A#401v48...
|...........
|...........
|===........
|A#401v48...
|...........
|...........
|===........
|A#401v48...
|...........
|...........
|===........
|A#401v48...
|...........
|...........
|===........
|A#401v48...
|...........
|...........
|===........
|A#401v48...
|...........
|...........
|===........
|A#401v48...
|...........
|...........
|===........
|A#401v48...
|...........
|...........
|===........
|A#401v48...
|...........
|...........
|===........
|A#401v48...
|...........
|...........
|===........
|A#401v48...
|...........
|...........
|===........
|A#401v48...
|...........
|...........
|===........
|A#401v48...
|...........
|...........
|===........
|A#401v48...
|...........
|...........
|===........
|A#401v48...
|...........
|...........
|===........
|A#401v48...
|...........
|...........
|===........
|A#401v48...
|...........
|...........
|===........
|A#401v48...
|...........
|...........
|===........
|A#401v48...
|...........
|...........
|===........
|A#401v48...
|...........
|...........
|===........
|A#401v48...
|...........
|...........
|===........
|A#401v48...
|...........
|...........
|===........
|A#401v48...
|...........
|...........
|===........
|A#401v48...
|...........
|...........
|===........
|A#401v48...
|...........
|...........
|===........
|A#401v48...
|...........
|...........
|===........
|A#401v48...
|...........
|...........
|===........
|A#401v48...
|...........
|...........
|===........
|A#401v48...
|...........
|...........
|===........
|A#401v48...
|...........
|...........
|===........
|A#401v48...
|...........
|...........
|===........
|A#401v48...
|...........
|...........
|===........
|A#401v48...
|...........
|...........
|===........
|A#401v48...
|...........
|...........
|===........
|A#401v48...
|...........
|...........
|===........
|D-501v48...
|...........
|...........
|===........
|D-501v48...
|...........
|...........
|===........
|D-501v48...
|...........
|...........
|===........
|D-501v48...
|...........
|...........
|===........
|C-501v48...
|...........
|...........
|===........
|C-501v48...
|...........
|...........
|===........
|C-501v48...
|...........
|...........
|===........
|C-501v48...
|...........
|...........
|===........
|F-501v48...
|...........
|...........
|===........
|F-501v48...
|...........
|...........
|===........
|F-501v48...
|...........
|...........
|===........
|F-501v48...
|...........
|...........
|===........
|G-501v48...
|...........
|...........
|===........
|G-501v48...
|...........
|...........
|===........
|G-501v48...
|...........
|...........
|===........
|G-501v48...
|...........
|...........
|===........
|G-501v48...
|...........
|...........
|===........
|G-501v48...
|...........
|...........
|===........
|G-501v48...
|...........
|...........
|===........
|G-501v48...
|...........
|...........
|===........
|G-501v48...
|...........
|...........
|===........
|G-501v48...
|...........
|...........
|===........
|G-501v48...
|...........
|...........
|===........
|G-501v48...
|...........
|...........
|===........
|C-501v48...
|...........
|...........
|===........
|A#401v48...
|...........
|...........
|===........
|A-401v48...
|...........
|...........
|===........
|F-401v48...
|...........
|...........
|===........
|G-401v48...
|...........
|...........
|===........
|...........
|...........
|...........
|...........
|G-401v48...
|...........
|...........
|===........
|D-501v48...
|...........
|...........
|===........
|C-501v48...
|...........
|...........
|===........
|...........
|...........
|...........
|...........
|A#401v48...
|...........
|...........
|===........
|...........
|...........
|...........
|...........
|A-401v48...
|...........
|...........
|===........
|...........
|...........
|...........
|...........
|A-401v48...
|...........
|...........
|===........
|A-401v48...
|...........
|...........
|===........
|C-501v48...
|...........
|...........
|===........
|...........
|...........
|...........
|...........
|A#401v48...
|...........
|...........
|===........
|A-401v48...
|...........
|...........
|===........
|G-401v48...
|...........
|...........
|===........
|...........
|...........
|...........
|...........
|G-401v48...
|...........
|...........
|===........
|A#501v48...
|...........
|...........
|===........
|A-501v48...
|...........
|...........
|===........
|A#501v48...
|...........
|...........
|===........
|A-501v48...
|...........
|...........
|===........
|A#501v48...
|...........
|...........
|===........
|G-401v48...
|...........
|...........
|===........
|...........
|...........
|...........
|...........
|G-401v48...
|...........
|...........
|===........
|A#501v48...
|...........
|...........
|===........
|A-501v48...
|...........
|...........
|===........
|A#501v48...
|...........
|...........
|===........
|A-501v48...
|...........
|...........
|===........
|A#501v48...
|...........
|...........
|===........
|G-401v48...
|...........
|...........
|===........
|...........
|...........
|...........
|...........
|G-401v48...
|...........
|...........
|===........
|D-501v48...
|...........
|...........
|===........
|C-501v48...
|...........
|...........
|===........
|...........
|...........
|...........
|...........
|A#401v48...
|...........
|...........
|===........
|...........
|...........
|...........
|...........
|A-401v48...
|...........
|...........
|===........
|...........
|...........
|...........
|...........
|A-401v48...
|...........
|...........
|===........
|A-401v48...
|...........
|...........
|===........
|C-501v48...
|...........
|...........
|===........
|...........
|...........
|...........
|...........
|A#401v48...
|...........
|...........
|===........
|A-401v48...
|...........
|...........
|===........
|G-401v48...
|...........
|...........
|===........
|...........
|...........
|...........
|...........
|G-401v48...
|...........
|...........
|===........
|A#501v48...
|...........
|...........
|===........
|A-501v48...
|...........
|...........
|===........
|A#501v48...
|...........
|...........
|===........
|A-501v48...
|...........
|...........
|===........
|A#501v48...
|...........
|...........
|===........
|G-401v48...
|...........
|...........
|===........
|...........
|...........
|...........
|...........
|G-401v48...
|...........
|...........
|===........
|A#501v48...
|...........
|...........
|===........
|A-501v48...
|...........
|...........
|===........
|A#501v48...
|...........
|...........
|===........
|A-501v48...
|...........
|...........
|===........
|A#501v48...
|...........
|...........
|===........
|G-401v48...
|...........
|...........
|===........
|...........
|...........
|...........
|...........
|G-401v48...
|...........
|...........
|===........
|D-501v48...
|...........
|...........
|===........
|C-501v48...
|...........
|...........
|===........
|...........
|...........
|...........
|...........
|A#401v48...
|...........
|...........
|===........
|...........
|...........
|...........
|...........
|A-401v48...
|...........
|...........
|===........
|...........
|...........
|...........
|...........
|A-401v48...
|...........
|...........
|===........
|A-401v48...
|...........
|...........
|===........
|C-501v48...
|...........
|...........
|===........
|...........
|...........
|...........
|...........
|A#401v48...
|...........
|...........
|===........
|A-401v48...
|...........
|...........
|===........
|G-401v48...
|...........
|...........
|===........
|...........
|...........
|...........
|...........
|G-401v48...
|...........
|...........
|===........
|A#501v48...
|...........
|...........
|===........
|A-501v48...
|...........
|...........
|===........
|A#501v48...
|...........
|...........
|===........
|A-501v48...
|...........
|...........
|===........
|A#501v48...
|...........
|...........
|===........
|G-401v48...
|...........
|...........
|===........
|...........
|...........
|...........
|...........
|G-401v48...
|...........
|...........
|===........
|A#501v48...
|...........
|...........
|===........
|A-501v48...
|...........
|...........
|===........
|A#501v48...
|...........
|...........
|===........
|A-501v48...
|...........
|...........
|===........
|A#501v48...
|...........
|...........
|===........
|A#401v48...
|...........
|...........
|===........
|A#401v48...
|...........
|...........
|===........
|A#401v48...
|...........
|...........
|===........
|A#401v48...
|...........
|...........
|===........
|D-501v48...
|...........
|...........
|===........
|D-501v48...
|...........
|...........
|===........
|D-501v48...
|...........
|...........
|===........
|D-501v48...
|...........
|...........
|===........
|C-501v48...
|...........
|...........
|===........
|C-501v48...
|...........
|...........
|===........
|C-501v48...
|...........
|...........
|===........
|C-501v48...
|...........
|...........
|===........
|F-501v48...
|...........
|...........
|===........
|F-501v48...
|...........
|...........
|===........
|F-501v48...
|...........
|...........
|===........
|F-501v48...
|...........
|...........
|===........
|G-501v48...
|...........
|...........
|===........
|G-501v48...
|...........
|...........
|===........
|G-501v48...
|...........
|...........
|===........
|G-501v48...
|...........
|...........
|===........
|G-501v48...
|...........
|...........
|===........
|G-501v48...
|...........
|...........
|===........
|G-501v48...
|...........
|...........
|===........
|G-501v48...
|...........
|...........
|===........
|G-501v48...
|...........
|...........
|===........
|G-501v48...
|...........
|...........
|===........
|G-501v48...
|...........
|...........
|===........
|G-501v48...
|...........
|...........
|===........
|C-501v48...
|...........
|...........
|===........
|A#401v48...
|...........
|...........
|===........
|A-401v48...
|...........
|...........
|===........
|...........
|...........
|...........
|...........
|G-401v48...
|...........
|...........
|===........
|...........
|...........
|...........
|...........
|G-401v48...
|...........
|...........
|===........
|D-501v48...
|...........
|...........
|===........
|C-501v48...
|...........
|...........
|===........
|...........
|...........
|...........
|...........
|A#401v48...
|...........
|...........
|===........
|...........
|...........
|...........
|...........
|A-401v48...
|...........
|...........
|===........
|...........
|...........
|...........
|...........
|A-401v48...
|...........
|...........
|===........
|A-401v48...
|...........
|...........
|===........
|C-501v48...
|...........
|...........
|===........
|...........
|...........
|...........
|...........
|A#401v48...
|...........
|...........
|===........
|A-401v48...
|...........
|...........
|===........
|G-401v48...
|...........
|...........
|===........
|...........
|...........
|...........
|...........
|G-401v48...
|...........
|...........
|===........
|A#501v48...
|...........
|...........
|===........
|A-501v48...
|...........
|...........
|===........
|A#501v48...
|...........
|...........
|===........
|A-501v48...
|...........
|...........
|===........
|A#501v48...
|...........
|...........
|===........
|G-401v48...
|...........
|...........
|===........
|...........
|...........
|...........
|...........
|G-401v48...
|...........
|...........
|===........
|A#501v48...
|...........
|...........
|===........
|A-501v48...
|...........
|...........
|===........
|A#501v48...
|...........
|...........
|===........
|A-501v48...
|...........
|...........
|===........
|A#501v48...
|...........
|...........
|===........
|G-401v48...
|...........
|...........
|===........
|...........
|...........
|...........
|...........
|G-401v48...
|...........
|...........
|===........
|D-501v48...
|...........
|...........
|===........
|C-501v48...
|...........
|...........
|===........
|...........
|...........
|...........
|...........
|A#401v48...
|...........
|...........
|===........
|...........
|...........
|...........
|...........
|A-401v48...
|...........
|...........
|===........
|...........
|...........
|...........
|...........
|A-401v48...
|...........
|...........
|===........
|A-401v48...
|...........
|...........
|===........
|C-501v48...
|...........
|...........
|===........
|...........
|...........
|...........
|...........
|A#401v48...
|...........
|...........
|===........
|A-401v48...
|...........
|...........
|===........
|G-401v48...
|...........
|...........
|===........
|...........
|...........
|...........
|...........
|G-401v48...
|...........
|...........
|===........
|A#501v48...
|...........
|...........
|===........
|A-501v48...
|...........
|...........
|===........
|A#501v48...
|...........
|...........
|===........
|A-501v48...
|...........
|...........
|===........
|A#501v48...
|...........
|...........
|===........
|G-401v48...
|...........
|...........
|===........
|...........
|...........
|...........
|...........
|G-401v48...
|...........
|...........
|===........
|A#501v48...
|...........
|...........
|===........
|A-501v48...
|...........
|...........
|===........
|A#501v48...
|...........
|...........
|===........
|A-501v48...
|...........
|...........
|===........
|A#501v48...
|...........
|...........
|===........
|A#401v48...
|...........
|...........
|===........
|A#401v48...
|...........
|...........
|===........
|A#401v48...
|...........
|...........
|===........
|A#401v48...
|...........
|...........
|===........
|D-501v48...
|...........
|...........
|===........
|D-501v48...
|...........
|...........
|===........
|D-501v48...
|...........
|...........
|===........
|D-501v48...
|...........
|...........
|===........
|C-501v48...
|...........
|...........
|===........
|C-501v48...
|...........
|...........
|===........
|C-501v48...
|...........
|...........
|===........
|C-501v48...
|...........
|...........
|===........
|F-501v48...
|...........
|...........
|===........
|F-501v48...
|...........
|...........
|===........
|F-501v48...
|...........
|...........
|===........
|F-501v48...
|...........
|...........
|===........
|G-501v48...
|...........
|...........
|===........
|G-501v48...
|...........
|...........
|===........
|G-501v48...
|...........
|...........
|===........
|G-501v48...
|...........
|...........
|===........
|G-501v48...
|...........
|...........
|===........
|G-501v48...
|...........
|...........
|===........
|G-501v48...
|...........
|...........
|===........
|G-501v48...
|...........
|...........
|===........
|G-501v48...
|...........
|...........
|===........
|G-501v48...
|...........
|...........
|===........
|G-501v48...
|...........
|...........
|===........
|G-501v48...
|...........
|...........
|===........
|G-501v48...
|...........
|...........
|===........
|G-501v48...
|...........
|...........
|===........
|G-501v48...
|...........
|...........
|===........
|G-501v48...
|...........
|...........
|===........
|...........
|...........
|...........
|...........
|...........
|...........
|...........
|...........
|...........
|...........
|...........
|...........
|...........
|...........
|...........
|...........
|...........
|...........
|...........
|...........
|...........
|...........
|...........
|...........
|...........
|...........
|...........
|...........
|...........
|...........
|...........
|...........
|...........

