ModPlug Tracker MPT
|...........
|...........
|...........
|...........
|...........
|...........
|...........
|...........
|...........
|...........
|...........
|...........
|...........
|...........
|...........
|...........
|...........
|...........
|...........
|...........
|...........
|...........
|...........
|...........
|...........
|...........
|...........
|...........
|...........
|...........
|...........
|...........
|C#602v64...
|===.....SD2
|...........
|...........
|C#602v64...
|===.....SD1
|...........
|...........
|C-602v64...
|===........
|...........
|...........
|C-602v64...
|===........
|...........
|...........
|A#502v64...
|===.....SD4
|F-502v44...
|===.....SD3
|...........
|...........
|F-502v64...
|===.....SD5
|...........
|...........
|G#502v64...
|===.....SD2
|A#502v64...
|===.....SD5
|G#502v55SC5
|...........
|C#602v64SC5
|...........
|...........
|...........
|C#602v64SC4
|...........
|...........
|...........
|C-602v64SC5
|...........
|...........
|...........
|C-602v64SC5
|...........
|...........
|...........
|A#502v64...
|===.....SD1
|F-602v61...
|===.....SD2
|...........
|...........
|F-602v64...
|===.....SD5
|...........
|...........
|G#502v64...
|===.....SD4
|A#502v64...
|...........
|===........
|...........
|C#602v64...
|===.....SD3
|...........
|...........
|C#602v64...
|===.....SD2
|...........
|...........
|C-602v64...
|===.....SD2
|...........
|...........
|C-602v64...
|===.....SD1
|...........
|...........
|A#502v64...
|===.....SD5
|F-502v53...
|===.....SD3
|...........
|...........
|F-502v64...
|...........
|===.....SD2
|...........
|G#502v64...
|===.....SD5
|A#502v64...
|===.....SD5
|G#502v64...
|===.....SD1
|C#602v64...
|===.....SD2
|...........
|...........
|C#602v64...
|===.....SD1
|...........
|...........
|C-602v64...
|===........
|...........
|...........
|C-602v64...
|===.....SD1
|...........
|...........
|A#502v64...
|===.....SD2
|F-602v64...
|===.....SD3
|...........
|...........
|F-602v64...
|...........
|===........
|...........
|G#502v58...
|===.....SD5
|A#502v64...
|...........
|===.....SD1
|...........
|C#602v64...
|===.....SD2
|...........
|...........
|C#602v64...
|===.....SD1
|...........
|...........
|C-602v64...
|===........
|...........
|...........
|C-602v64...
|===........
|...........
|...........
|A#502v64...
|===.....SD4
|F-502v44...
|===.....SD3
|...........
|...........
|F-502v64...
|===.....SD5
|...........
|...........
|G#502v64...
|===.....SD2
|A#502v64...
|===.....SD5
|G#502v55SC5
|...........
|C#602v64SC5
|...........
|...........
|...........
|C#602v64SC4
|...........
|...........
|...........
|C-602v64SC5
|...........
|...........
|...........
|C-602v64SC5
|...........
|...........
|...........
|A#502v64...
|===.....SD1
|F-602v61...
|===.....SD2
|...........
|...........
|F-602v64...
|===.....SD5
|...........
|...........
|G#502v64...
|===.....SD4
|A#502v64...
|...........
|===........
|...........
|C#602v64...
|===.....SD3
|...........
|...........
|C#602v64...
|===.....SD2
|...........
|...........
|C-602v64...
|===.....SD2
|...........
|...........
|C-602v64...
|===.....SD1
|...........
|...........
|A#502v64...
|===.....SD5
|F-502v53...
|===.....SD3
|...........
|...........
|F-502v64...
|...........
|===.....SD2
|...........
|G#502v64...
|===.....SD5
|A#502v64...
|===.....SD5
|G#502v64...
|===.....SD1
|C#602v64...
|===.....SD2
|...........
|...........
|C#602v64...
|===.....SD1
|...........
|...........
|C-602v64...
|===........
|...........
|...........
|C-602v64...
|===.....SD1
|...........
|...........
|A#502v64...
|===.....SD2
|F-602v64...
|===.....SD3
|...........
|...........
|F-602v64...
|...........
|===........
|...........
|G#502v58...
|===.....SD5
|A#502v64...
|...........
|===.....SD1
|...........
|...........
|...........
|...........
|...........
|...........
|...........
|...........
|...........
|...........
|...........
|...........
|...........
|...........
|...........
|...........
|...........
|...........
|...........
|...........
|...........
|...........
|...........
|...........
|...........
|...........
|...........
|...........
|...........
|...........
|...........
|...........
|...........
|...........
|...........
|...........
|...........
|...........
|...........
|...........
|...........
|...........
|...........
|...........
|...........
|...........
|...........
|...........
|...........
|...........
|...........
|...........
|...........
|...........
|...........
|...........
|...........
|...........
|...........
|...........
|...........
|...........
|...........
|...........
|...........
|...........
|...........
|...........
|...........
|...........
|...........
|...........
|...........
|...........
|...........
|...........
|...........
|...........
|...........
|...........
|...........
|...........
|...........
|...........
|...........
|...........
|...........
|...........
|...........
|...........
|...........
|...........
|...........
|...........
|...........
|...........
|...........

