ModPlug Tracker MPT
|...........
|...........
|...........
|...........
|...........
|...........
|...........
|...........
|E-601v64...
|===.....SD2
|...........
|...........
|D#601v64...
|===.....SD2
|...........
|...........
|D-601v64...
|...........
|C-601v64...
|...........
|===........
|...........
|...........
|...........
|...........
|...........
|G-401v64...
|...........
|...........
|...........
|===........
|...........
|...........
|...........
|...........
|...........
|...........
|...........
|...........
|...........
|E-601v64...
|...........
|===........
|...........
|...........
|...........
|...........
|...........
|D-601v64...
|...........
|C-601v64...
|===.....SD2
|...........
|...........
|E-601v64...
|...........
|===........
|...........
|...........
|...........
|...........
|...........
|...........
|...........
|...........
|...........
|...........
|...........
|C-601v64...
|...........
|...........
|D-601v64...
|E-601v64...
|...........
|...........
|...........
|E-601v64...
|...........
|...........
|...........
|D-601v64...
|...........
|...........
|...........
|C-601v64...
|...........
|...........
|...........
|E-601v64...
|...........
|...........
|...........
|F-601v64...
|...........
|...........
|...........
|G-601v64...
|...........
|...........
|...........
|A-601v64...
|...........
|...........
|...........
|===........
|...........
|...........
|...........
|C-601v64...
|...........
|...........
|...........
|C-601v64...
|...........
|...........
|...........
|A-501v64...
|...........
|...........
|...........
|G-501v64...
|...........
|...........
|...........
|C-601v64...
|...........
|C-601v64...
|...........
|===........
|...........
|...........
|...........
|...........
|...........
|...........
|...........
|F-501v64...
|...........
|...........
|...........
|G-501v64...
|...........
|...........
|...........
|A-501v64...
|...........
|...........
|...........
|B-501v64...
|...........
|===........
|...........
|...........
|...........
|...........
|...........
|F-701v64...
|===.....SD2
|...........
|...........
|F-701v64...
|===.....SD2
|...........
|...........
|...........
|...........
|...........
|...........
|E-601v64...
|...........
|===........
|...........
|...........
|...........
|...........
|...........
|D-601v64...
|...........
|C-601v64...
|===.....SD2
|...........
|...........
|E-601v64...
|...........
|===........
|...........
|...........
|...........
|...........
|...........
|...........
|...........
|...........
|...........
|...........
|...........
|C-601v64...
|...........
|...........
|D-601v64...
|E-601v64...
|...........
|...........
|...........
|E-601v64...
|...........
|...........
|...........
|D-601v64...
|...........
|...........
|...........
|C-601v64...
|...........
|...........
|...........
|A-601v64...
|...........
|...........
|...........
|G-601v64...
|...........
|...........
|...........
|C-701v64...
|...........
|...........
|...........
|E-601v64...
|...........
|D-601v64...
|===.....SD2
|...........
|...........
|C-601v64...
|...........
|...........
|...........
|...........
|...........
|C-601v64...
|...........
|...........
|...........
|D-601v64...
|...........
|...........
|...........
|E-601v64...
|...........
|...........
|...........
|C-601v64...
|...........
|C-601v64...
|...........
|...........
|...........
|===........
|...........
|...........
|...........
|...........
|...........
|D#701v64...
|...........
|...........
|...........
|D-701v64...
|...........
|...........
|...........
|===........
|...........
|...........
|...........
|C-701v64...
|...........
|...........
|...........
|===........
|...........
|...........
|...........
|...........
|...........
|...........
|...........
|...........
|...........
|...........
|...........
|...........
|...........
|...........
|...........
|E-601v64...
|...........
|===........
|...........
|...........
|...........
|...........
|...........
|D-601v64...
|...........
|C-601v64...
|===.....SD2
|...........
|...........
|E-601v64...
|...........
|===........
|...........
|...........
|...........
|...........
|...........
|...........
|...........
|...........
|...........
|...........
|...........
|C-601v64...
|...........
|...........
|D-601v64...
|E-601v64...
|...........
|...........
|...........
|E-601v64...
|...........
|...........
|...........
|D-601v64...
|...........
|...........
|...........
|C-601v64...
|...........
|...........
|...........
|E-601v64...
|...........
|...........
|...........
|F-601v64...
|...........
|...........
|...........
|G-601v64...
|...........
|...........
|...........
|A-601v64...
|...........
|...........
|...........
|===........
|...........
|...........
|...........
|C-601v64...
|...........
|...........
|...........
|C-601v64...
|...........
|...........
|...........
|A-501v64...
|...........
|...........
|...........
|G-501v64...
|...........
|...........
|...........
|C-601v64...
|...........
|C-601v64...
|...........
|===........
|...........
|...........
|...........
|...........
|...........
|...........
|...........
|F-601v64...
|...........
|...........
|...........
|E-601v64...
|...........
|...........
|...........
|C-601v64...
|...........
|...........
|...........
|D-601v64...
|...........
|...........
|...........
|===........
|...........
|F#701v64...
|===.....SD2
|...........
|...........
|...........
|...........
|F#601v64...
|===.....SD2
|...........
|...........
|...........
|...........
|...........
|...........
|...........
|...........
|...........
|...........
|A-601v64...
|...........
|...........
|...........
|B-601v64...
|...........
|...........
|...........
|C-701v64...
|...........
|...........
|...........
|B-601v64...
|===.....SD2
|...........
|...........
|...........
|...........
|G-601v64...
|...........
|...........
|...........
|===........
|...........
|...........
|...........
|...........
|...........
|F-601v64...
|...........
|...........
|...........
|===........
|...........
|...........
|...........
|G-601v64...
|...........
|F-601v64...
|...........
|===........
|...........
|...........
|...........
|E-601v64...
|...........
|...........
|...........
|F-601v64...
|...........
|...........
|...........
|F#601v64...
|...........
|...........
|...........
|G-601v64...
|...........
|...........
|...........
|===........
|...........
|...........
|...........
|A-601v64...
|...........
|...........
|...........
|B-601v64...
|...........
|...........
|...........
|C-701v64...
|...........
|...........
|...........
|B-601v64...
|===.....SD2
|...........
|...........
|...........
|...........
|G-601v64...
|...........
|===........
|...........
|...........
|...........
|...........
|...........
|...........
|...........
|F-501v64...
|...........
|...........
|...........
|G-501v64...
|...........
|...........
|...........
|A-501v64...
|...........
|...........
|...........
|B-501v64...
|...........
|===........
|...........
|...........
|...........
|...........
|...........
|F-701v64...
|===.....SD2
|...........
|...........
|F-701v64...
|===.....SD2
|...........
|...........
|...........
|...........
|...........
|...........
|E-601v64...
|...........
|===........
|...........
|...........
|...........
|...........
|...........
|D-601v64...
|...........
|C-601v64...
|===.....SD2
|...........
|...........
|E-601v64...
|...........
|===........
|...........
|...........
|...........
|...........
|...........
|...........
|...........
|...........
|...........
|...........
|...........
|C-601v64...
|...........
|...........
|D-601v64...
|E-601v64...
|...........
|...........
|...........
|E-601v64...
|...........
|...........
|...........
|D-601v64...
|...........
|...........
|...........
|C-601v64...
|...........
|...........
|...........
|A-601v64...
|...........
|...........
|...........
|G-601v64...
|...........
|...........
|...........
|C-701v64...
|...........
|...........
|...........
|E-601v64...
|...........
|D-601v64...
|===.....SD2
|...........
|...........
|C-601v64...
|...........
|...........
|...........
|...........
|...........
|C-601v64...
|...........
|...........
|...........
|D-601v64...
|...........
|...........
|...........
|E-601v64...
|...........
|...........
|...........
|C-601v64...
|...........
|C-601v64...
|...........
|===........
|...........
|...........
|...........
|...........
|...........
|...........
|...........
|F-601v64...
|...........
|...........
|...........
|E-601v64...
|...........
|...........
|...........
|C-601v64...
|...........
|...........
|...........
|D-601v64...
|...........
|...........
|...........
|===........
|...........
|F#701v64...
|===.....SD2
|...........
|...........
|...........
|...........
|F#601v64...
|===.....SD2
|...........
|...........
|...........
|...........
|...........
|...........
|...........
|...........
|...........
|...........
|A-601v64...
|...........
|...........
|...........
|B-601v64...
|...........
|...........
|...........
|C-701v64...
|...........
|...........
|...........
|B-601v64...
|===.....SD2
|...........
|...........
|...........
|...........
|G-601v64...
|...........
|...........
|...........
|===........
|...........
|...........
|...........
|...........
|...........
|F-601v64...
|...........
|...........
|...........
|===........
|...........
|...........
|...........
|G-601v64...
|...........
|F-601v64...
|...........
|===........
|...........
|...........
|...........
|E-601v64...
|...........
|...........
|...........
|F-601v64...
|...........
|...........
|...........
|F#601v64...
|...........
|...........
|...........
|G-601v64...
|...........
|...........
|...........
|===........
|...........
|...........
|...........
|A-601v64...
|...........
|...........
|...........
|B-601v64...
|...........
|...........
|...........
|C-701v64...
|...........
|...........
|...........
|B-601v64...
|===.....SD2
|...........
|...........
|...........
|...........
|G-601v64...
|...........
|...........
|...........
|===........
|...........
|...........
|...........
|...........
|...........
|D#701v64...
|...........
|...........
|...........
|D-701v64...
|...........
|...........
|...........
|===........
|...........
|...........
|...........
|C-701v64...
|...........
|...........
|...........
|===........
|...........
|...........
|...........
|...........
|...........
|...........
|...........
|...........
|...........
|...........
|...........
|...........
|...........
|...........
|...........
|...........

