ModPlug Tracker  IT
|...........
|...........
|...........
|...........
|...........
|...........
|...........
|...........
|...........
|...........
|...........
|...........
|...........
|...........
|...........
|...........
|...........
|...........
|...........
|...........
|...........
|...........
|...........
|...........
|...........
|...........
|...........
|...........
|...........
|...........
|...........
|...........
|...........
|...........
|...........
|...........
|...........
|...........
|...........
|...........
|...........
|...........
|...........
|...........
|...........
|...........
|...........
|...........
|...........
|...........
|...........
|...........
|...........
|...........
|...........
|...........
|...........
|...........
|...........
|...........
|...........
|...........
|...........
|...........
|...........
|...........
|...........
|...........
|...........
|...........
|...........
|...........
|...........
|...........
|...........
|...........
|...........
|...........
|...........
|...........
|...........
|...........
|...........
|...........
|...........
|...........
|...........
|...........
|...........
|...........
|...........
|...........
|...........
|...........
|...........
|...........
|...........
|...........
|...........
|...........
|C#518v64...
|===.....SD5
|...........
|...........
|C#518v64...
|...........
|...........
|===.....SD4
|A#418v64...
|...........
|...........
|===.....SD4
|C#518v64...
|...........
|...........
|===.....SD4
|D#518v64...
|...........
|...........
|...........
|...........
|===.....SD3
|...........
|...........
|...........
|...........
|...........
|...........
|...........
|...........
|...........
|...........
|C-518v64...
|...........
|...........
|===.....SD4
|A#418v64...
|...........
|...........
|===.....SD4
|C-518v64...
|...........
|...........
|...........
|...........
|===.....SD3
|A#418v64...
|===.....SD5
|G#418v64...
|...........
|...........
|...........
|...........
|===.....SD3
|...........
|...........
|...........
|...........
|...........
|...........
|...........
|...........
|...........
|...........
|A#418v64...
|===.....SD5
|...........
|...........
|A#418v64...
|...........
|...........
|===.....SD4
|C-518v64...
|...........
|...........
|===.....SD4
|C#518v64...
|...........
|...........
|===.....SD4
|A#418v64...
|...........
|...........
|===.....SD4
|...........
|...........
|...........
|...........
|G#418v64...
|...........
|...........
|===.....SD4
|G#518v64...
|...........
|...........
|...........
|...........
|===.....SD3
|...........
|...........
|G#518v64...
|...........
|...........
|===.....SD4
|D#518v64...
|...........
|...........
|...........
|...........
|...........
|...........
|...........
|...........
|...........
|...........
|===.....SD2
|...........
|...........
|...........
|...........
|...........
|...........
|...........
|...........
|...........
|...........
|...........
|...........
|A#418v64...
|===.....SD5
|...........
|...........
|A#418v64...
|...........
|...........
|===.....SD4
|C-518v64...
|...........
|...........
|===.....SD4
|C#518v64...
|...........
|...........
|===.....SD4
|A#418v64...
|...........
|...........
|===.....SD4
|C#518v64...
|...........
|...........
|===.....SD4
|D#518v64...
|...........
|...........
|===.....SD4
|...........
|...........
|...........
|...........
|C-518v64...
|...........
|...........
|===.....SD4
|A#418v64...
|...........
|...........
|===.....SD4
|C-518v64...
|...........
|...........
|...........
|...........
|===.....SD3
|A#418v64...
|===.....SD5
|G#418v64...
|...........
|...........
|...........
|...........
|===.....SD3
|...........
|...........
|...........
|...........
|...........
|...........
|...........
|...........
|...........
|...........
|A#418v64...
|===.....SD5
|...........
|...........
|A#418v64...
|...........
|...........
|===.....SD4
|C-518v64...
|...........
|...........
|===.....SD4
|C#518v64...
|...........
|...........
|===.....SD4
|A#418v64...
|...........
|...........
|===.....SD4
|G#418v64...
|...........
|...........
|===.....SD4
|...........
|...........
|...........
|...........
|D#518v64...
|===.....SD5
|...........
|...........
|D#518v64...
|===.....SD5
|...........
|...........
|D#518v64...
|...........
|...........
|===.....SD4
|F-518v64...
|...........
|...........
|===.....SD4
|D#518v64...
|...........
|...........
|...........
|...........
|...........
|...........
|...........
|...........
|...........
|...........
|...........
|...........
|===.....SD2
|...........
|...........
|C#518v64...
|...........
|...........
|...........
|...........
|...........
|...........
|...........
|...........
|...........
|...........
|...........
|...........
|...........
|...........
|...........
|...........
|...........
|...........
|===.....SD2
|D#518v64...
|...........
|...........
|===.....SD4
|F-518v64...
|...........
|...........
|===.....SD4
|C#518v64...
|...........
|...........
|===.....SD4
|D#518v64...
|===.....SD5
|...........
|...........
|D#518v64...
|===.....SD5
|...........
|...........
|D#518v64...
|...........
|...........
|===.....SD4
|F-518v64...
|...........
|...........
|===.....SD4
|D#518v64...
|...........
|...........
|===.....SD4
|G#418v64...
|...........
|...........
|===.....SD4
|G#418v64...
|...........
|...........
|...........
|...........
|...........
|...........
|===.....SD2
|...........
|...........
|...........
|...........
|...........
|...........
|...........
|...........
|...........
|...........
|...........
|...........
|...........
|...........
|...........
|...........
|A#418v64...
|...........
|...........
|===.....SD4
|C-518v64...
|...........
|...........
|===.....SD4
|C#518v64...
|...........
|...........
|===.....SD4
|A#418v64...
|...........
|...........
|===.....SD4
|...........
|...........
|...........
|...........
|D#518v64...
|...........
|...........
|===.....SD4
|F-518v64...
|...........
|...........
|===.....SD4
|D#518v64...
|...........
|...........
|...........
|...........
|...........
|...........
|...........
|...........
|===.....SD2
|...........
|...........
|G#418v64...
|===.....SD5
|A#418v64...
|===.....SD5
|C#518v64...
|===.....SD5
|A#418v64...
|===.....SD5
|F-518v64...
|...........
|...........
|...........
|...........
|===.....SD3
|...........
|...........
|F-518v64...
|...........
|...........
|===.....SD4
|D#518v64...
|...........
|...........
|...........
|...........
|...........
|...........
|...........
|...........
|...........
|...........
|===.....SD2
|G#418v64...
|===.....SD5
|A#418v64...
|===.....SD5
|C#518v64...
|===.....SD5
|A#418v64...
|===.....SD5
|D#518v64...
|...........
|...........
|...........
|...........
|===.....SD3
|...........
|...........
|D#518v64...
|...........
|...........
|===.....SD4
|C#518v64...
|...........
|...........
|...........
|...........
|===.....SD3
|C-518v64...
|===.....SD5
|A#418v64...
|...........
|...........
|===.....SD4
|G#418v64...
|===.....SD5
|A#418v64...
|===.....SD5
|C#518v64...
|===.....SD5
|A#418v64...
|===.....SD5
|C#518v64...
|...........
|...........
|...........
|...........
|...........
|...........
|===.....SD2
|D#518v64...
|...........
|...........
|===.....SD4
|C-518v64...
|...........
|...........
|...........
|...........
|===.....SD3
|A#418v64...
|===.....SD5
|G#418v64...
|...........
|...........
|===.....SD4
|G#418v64...
|...........
|...........
|===.....SD4
|D#518v64...
|...........
|...........
|...........
|...........
|...........
|...........
|...........
|...........
|...........
|...........
|===.....SD2
|C#518v64...
|...........
|...........
|...........
|...........
|...........
|...........
|...........
|...........
|...........
|...........
|...........
|...........
|...........
|...........
|===.....SD2
|G#418v64...
|===.....SD5
|A#418v64...
|===.....SD5
|C#518v64...
|===.....SD5
|A#418v64...
|===.....SD5
|F-518v64...
|...........
|...........
|...........
|...........
|===.....SD3
|...........
|...........
|F-518v64...
|...........
|...........
|===.....SD4
|D#518v64...
|...........
|...........
|...........
|...........
|...........
|...........
|...........
|...........
|...........
|...........
|===.....SD2
|G#418v64...
|===.....SD5
|A#418v64...
|===.....SD5
|C#518v64...
|===.....SD5
|A#418v64...
|===.....SD5
|G#518v64...
|...........
|...........
|...........
|...........
|...........
|...........
|===.....SD2
|C-518v64...
|...........
|...........
|===.....SD4
|C#518v64...
|...........
|...........
|...........
|...........
|===.....SD3
|C-518v64...
|===.....SD5
|A#418v64...
|...........
|...........
|===.....SD4
|G#418v64...
|===.....SD5
|A#418v64...
|===.....SD5
|C#518v64...
|===.....SD5
|A#418v64...
|===.....SD5
|C#518v64...
|...........
|...........
|...........
|...........
|...........
|...........
|===.....SD2
|D#518v64...
|...........
|...........
|===.....SD4
|C-518v64...
|...........
|...........
|...........
|...........
|===.....SD3
|A#418v64...
|===.....SD5
|G#418v64...
|...........
|...........
|...........
|...........
|===.....SD3
|...........
|...........
|G#418v64...
|...........
|...........
|===.....SD4
|D#518v64...
|...........
|...........
|...........
|...........
|...........
|...........
|===.....SD2
|C#518v64...
|...........
|...........
|...........
|...........
|...........
|...........
|...........
|...........
|...........
|...........
|...........
|...........
|...........
|...........
|...........
|...........
|===.....SD2
|...........
|...........
|...........
|...........
|...........
|...........
|...........
|...........
|...........
|...........
|...........
|...........
|...........
|...........
|A#418v64...
|...........
|...........
|===.....SD4
|C-518v64...
|...........
|...........
|===.....SD4
|C#518v64...
|===.....SD5
|...........
|...........
|C#518v64...
|...........
|...........
|===.....SD4
|D#518v64...
|...........
|...........
|===.....SD4
|C-518v64...
|...........
|...........
|...........
|...........
|===.....SD3
|A#418v64...
|===.....SD5
|G#418v64...
|...........
|...........
|...........
|...........
|...........
|...........
|...........
|...........
|...........
|...........
|...........
|...........
|...........
|...........
|...........
|...........
|...........
|...........
|...........
|...........
|...........
|...........
|...........
|...........
|===.....SD2
|...........
|...........
|...........
|...........
|...........
|...........
|A#418v64...
|===.....SD5
|...........
|...........
|A#418v64...
|...........
|...........
|===.....SD4
|C-518v64...
|...........
|...........
|===.....SD4
|C#518v64...
|...........
|...........
|===.....SD4
|A#418v64...
|...........
|...........
|===.....SD4
|...........
|...........
|...........
|...........
|G#418v64...
|...........
|...........
|===.....SD4
|G#518v64...
|...........
|...........
|...........
|...........
|===.....SD3
|...........
|...........
|G#518v64...
|...........
|...........
|===.....SD4
|D#518v64...
|...........
|...........
|...........
|...........
|...........
|...........
|===.....SD2
|F-518v64...
|...........
|...........
|===.....SD4
|D#518v64...
|...........
|...........
|===.....SD4
|C#518v64...
|...........
|...........
|===.....SD4
|...........
|...........
|...........
|...........
|A#418v64...
|===.....SD5
|...........
|...........
|A#418v64...
|...........
|...........
|===.....SD4
|C-518v64...
|...........
|...........
|===.....SD4
|C#518v64...
|...........
|...........
|===.....SD4
|A#418v64...
|...........
|...........
|===.....SD4
|C#518v64...
|...........
|...........
|===.....SD4
|D#518v64...
|...........
|...........
|===.....SD4
|...........
|...........
|...........
|...........
|C-518v64...
|...........
|...........
|===.....SD4
|A#418v64...
|...........
|...........
|===.....SD4
|C-518v64...
|...........
|...........
|...........
|...........
|...........
|...........
|===.....SD2
|G#418v64...
|...........
|...........
|...........
|...........
|...........
|...........
|...........
|...........
|...........
|...........
|===.....SD2
|...........
|...........
|...........
|...........
|A#418v64...
|===.....SD5
|...........
|...........
|A#418v64...
|...........
|...........
|===.....SD4
|C-518v64...
|...........
|...........
|===.....SD4
|C#518v64...
|...........
|...........
|===.....SD4
|A#418v64...
|...........
|...........
|===.....SD4
|G#418v64...
|...........
|...........
|===.....SD4
|...........
|...........
|...........
|...........
|D#518v64...
|...........
|...........
|===.....SD4
|D#518v64...
|===.....SD5
|...........
|...........
|D#518v64...
|...........
|...........
|===.....SD4
|F-518v64...
|...........
|...........
|===.....SD4
|D#518v64...
|...........
|...........
|...........
|...........
|...........
|...........
|...........
|...........
|...........
|...........
|...........
|...........
|===.....SD2
|...........
|...........
|C#518v64...
|...........
|...........
|...........
|...........
|...........
|...........
|...........
|...........
|...........
|...........
|...........
|...........
|...........
|...........
|...........
|...........
|...........
|...........
|===.....SD2
|D#518v64...
|...........
|...........
|===.....SD4
|F-518v64...
|...........
|...........
|===.....SD4
|C#518v64...
|...........
|...........
|===.....SD4

