ModPlug Tracker MPT
|...........
|...........
|...........
|...........
|...........
|...........
|...........
|...........
|...........
|...........
|...........
|...........
|...........
|...........
|...........
|...........
|...........
|...........
|...........
|...........
|...........
|...........
|...........
|...........
|...........
|...........
|...........
|...........
|...........
|...........
|...........
|...........
|...........
|...........
|...........
|...........
|...........
|...........
|...........
|...........
|...........
|...........
|...........
|...........
|...........
|...........
|...........
|...........
|...........
|...........
|...........
|...........
|...........
|...........
|...........
|...........
|...........
|...........
|...........
|...........
|...........
|...........
|...........
|...........
|D-502v64...
|...........
|...........
|===.....SD4
|...........
|...........
|A-402v61SD2
|...........
|...........
|===.....SD5
|...........
|...........
|D-502v61...
|...........
|...........
|===.....SD4
|...........
|...........
|...........
|...........
|A-402v64...
|...........
|===.....SD2
|...........
|D-502v64...
|===.....SD3
|D-502v61SD2
|===.....SD4
|E-502v64...
|...........
|...........
|===.....SD4
|F#502v64...
|...........
|...........
|===.....SD2
|...........
|...........
|G-502v61SD2
|...........
|...........
|...........
|===.....SD1
|...........
|F#502v64...
|...........
|...........
|...........
|===.....SD1
|...........
|...........
|...........
|E-502v64...
|...........
|===.....SD5
|...........
|D-502v64...
|===.....SD2
|D-502v64SD2
|...........
|E-502v61...
|...........
|...........
|===.....SD1
|D-502v64...
|...........
|...........
|===.....SD4
|...........
|...........
|A-402v61SD2
|...........
|...........
|===.....SD5
|...........
|...........
|D-502v61...
|...........
|...........
|===.....SD4
|...........
|...........
|...........
|...........
|A-402v64...
|...........
|===.....SD2
|...........
|D-502v64...
|===.....SD3
|D-502v61SD2
|===.....SD4
|E-502v64...
|...........
|...........
|===.....SD4
|F#502v64...
|...........
|...........
|===.....SD2
|...........
|...........
|G-502v61SD2
|...........
|...........
|...........
|===.....SD1
|...........
|F#502v64...
|...........
|...........
|...........
|===.....SD1
|...........
|...........
|...........
|E-502v64...
|...........
|===.....SD5
|...........
|D-502v64...
|===.....SD2
|D-502v64SD2
|...........
|E-502v61...
|...........
|...........
|===.....SD1
|D-502v64...
|...........
|...........
|===.....SD4
|...........
|...........
|A-402v61SD2
|...........
|...........
|===.....SD5
|...........
|...........
|D-502v61...
|...........
|...........
|===.....SD4
|...........
|...........
|...........
|...........
|A-402v64...
|...........
|===.....SD2
|...........
|D-502v64...
|===.....SD3
|D-502v61SD2
|===.....SD5
|E-502v64...
|...........
|...........
|===.....SD4
|D-502v64...
|...........
|...........
|===.....SD4
|...........
|...........
|A-402v61SD2
|...........
|...........
|===.....SD5
|...........
|...........
|D-502v61...
|...........
|...........
|===.....SD4
|...........
|...........
|...........
|...........
|A-402v64...
|...........
|===.....SD2
|...........
|D-502v64...
|===.....SD3
|D-502v61SD2
|===.....SD5
|E-502v64...
|...........
|...........
|===.....SD4
|D-502v64...
|...........
|...........
|===.....SD4
|...........
|...........
|A-402v61SD2
|...........
|...........
|===.....SD5
|...........
|...........
|D-502v61...
|...........
|...........
|===.....SD4
|...........
|...........
|...........
|...........
|A-402v64...
|...........
|===.....SD2
|...........
|D-502v64...
|===.....SD3
|D-502v61SD2
|===.....SD4
|E-502v64...
|...........
|...........
|===.....SD4
|F#502v64...
|...........
|...........
|===.....SD2
|...........
|...........
|G-502v61SD2
|...........
|...........
|...........
|===.....SD1
|...........
|F#502v64...
|...........
|...........
|...........
|===.....SD1
|...........
|...........
|...........
|E-502v64...
|...........
|===.....SD5
|...........
|D-502v64...
|===.....SD2
|D-502v64SD2
|...........
|E-502v61...
|...........
|...........
|===.....SD1
|D-502v64...
|...........
|...........
|===.....SD2
|D-502v64...
|...........
|...........
|===.....SD3
|D-502v64SD1
|...........
|...........
|===.....SD3
|D-502v64...
|...........
|...........
|===.....SD4
|E-502v64SD1
|...........
|...........
|...........
|...........
|...........
|...........
|===.....SD3
|F#502v64...
|...........
|...........
|...........
|...........
|...........
|...........
|...........
|...........
|...........
|...........
|...........
|...........
|...........
|...........
|...........
|===.....SD2
|...........
|...........
|...........
|...........
|...........
|...........
|...........
|...........
|...........
|...........
|...........
|...........
|...........
|...........
|...........
|...........
|...........
|...........
|...........
|...........
|...........
|...........
|...........
|B-402v64SD1
|...........
|...........
|===.....SD4
|B-402v64SD1
|...........
|...........
|===.....SD3
|B-402v64SD1
|...........
|...........
|===.....SD3
|B-402v64...
|...........
|...........
|===.....SD3
|C#502v64SD2
|...........
|...........
|...........
|...........
|...........
|...........
|D-502v64SD5
|...........
|...........
|...........
|...........
|...........
|...........
|...........
|F#402v64SD5
|...........
|...........
|...........
|...........
|...........
|...........
|...........
|...........
|...........
|...........
|...........
|...........
|...........
|...........
|...........
|===........
|...........
|...........
|...........
|B-402v64SD4
|...........
|...........
|...........
|B-402v64SD5
|...........
|...........
|...........
|...........
|...........
|===.....SD5
|...........
|...........
|D-502v64...
|...........
|...........
|===.....SD4
|B-402v64SD1
|...........
|...........
|===.....SD1
|A-402v64SD1
|...........
|...........
|===.....SD3
|D-502v64SD1
|...........
|...........
|...........
|...........
|===.....SD5
|...........
|...........
|A-402v64SD1
|...........
|...........
|===.....SD4
|B-402v64SD2
|...........
|...........
|===.....SD3
|A-402v64SD1
|...........
|...........
|===.....SD3
|D-502v64SD1
|...........
|...........
|===.....SD3
|B-402v64SD1
|...........
|...........
|===.....SD4
|A-402v64SD1
|...........
|...........
|===.....SD4
|D-502v64...
|...........
|...........
|...........
|...........
|===........
|...........
|...........
|A-402v64SD1
|...........
|...........
|===.....SD3
|B-402v64SD1
|...........
|...........
|===.....SD3
|A-402v64...
|...........
|...........
|===.....SD3
|D-502v64...
|...........
|...........
|===.....SD3
|B-402v64...
|...........
|...........
|===.....SD3
|A-402v64...
|...........
|...........
|===.....SD4
|D-502v64SD1
|...........
|...........
|...........
|...........
|===.....SD4
|...........
|...........
|D-502v64...
|...........
|...........
|===.....SD5
|E-502v64...
|...........
|...........
|===.....SD4
|F#502v64SD1
|...........
|...........
|...........
|...........
|...........
|...........
|===.....SD3
|G-502v64SD1
|...........
|...........
|...........
|...........
|...........
|...........
|===.....SD4
|E-502v64SD1
|...........
|...........
|...........
|...........
|...........
|...........
|...........
|...........
|...........
|...........
|...........
|...........
|===.....SD2
|...........
|...........
|...........
|...........
|...........
|...........
|D-502v64...
|...........
|...........
|===.....SD2
|D-502v64...
|...........
|...........
|===.....SD3
|D-502v64SD1
|...........
|...........
|===.....SD3
|D-502v64...
|...........
|...........
|===.....SD4
|E-502v64SD1
|...........
|...........
|...........
|...........
|...........
|...........
|===.....SD3
|F#502v64...
|...........
|...........
|...........
|...........
|...........
|...........
|...........
|...........
|...........
|...........
|...........
|...........
|...........
|...........
|...........
|===.....SD2
|...........
|...........
|...........
|...........
|...........
|...........
|...........
|...........
|...........
|...........
|...........
|...........
|...........
|...........
|...........
|...........
|...........
|...........
|...........
|...........
|...........
|...........
|...........
|B-402v64SD1
|...........
|...........
|===.....SD4
|B-402v64SD1
|...........
|...........
|===.....SD3
|B-402v64SD1
|...........
|...........
|===.....SD3
|B-402v64...
|...........
|...........
|===.....SD3
|C#502v64SD2
|...........
|...........
|...........
|...........
|...........
|...........
|D-502v64SD5
|...........
|...........
|...........
|...........
|...........
|...........
|...........
|F#402v64SD5
|...........
|...........
|...........
|...........
|...........
|...........
|...........
|...........
|...........
|...........
|...........
|...........
|...........
|...........
|...........
|===........
|...........
|...........
|...........
|B-402v64SD4
|...........
|...........
|...........
|B-402v64SD5
|...........
|...........
|...........
|...........
|...........
|===.....SD5
|...........
|...........
|D-502v64...
|...........
|...........
|===.....SD4
|B-402v64SD1
|...........
|...........
|===.....SD1
|A-402v64SD1
|...........
|...........
|===.....SD3
|D-502v64SD1
|...........
|...........
|...........
|...........
|===.....SD5
|...........
|...........
|A-402v64SD1
|...........
|...........
|===.....SD4
|B-402v64SD2
|...........
|...........
|===.....SD3
|A-402v64SD1
|...........
|...........
|===.....SD3
|D-502v64SD1
|...........
|...........
|===.....SD3
|B-402v64SD1
|...........
|...........
|===.....SD4
|A-402v64SD1
|...........
|...........
|===.....SD4
|D-502v64...
|...........
|...........
|...........
|...........
|===........
|...........
|...........
|A-402v64SD1
|...........
|...........
|===.....SD3
|B-402v64SD1
|...........
|...........
|===.....SD3
|A-402v64...
|...........
|...........
|===.....SD3
|D-502v64...
|...........
|...........
|===.....SD3
|B-402v64...
|...........
|...........
|===.....SD3
|A-402v64...
|...........
|...........
|===.....SD4
|D-502v64SD1
|...........
|...........
|...........
|...........
|===.....SD4
|...........
|...........
|D-502v64...
|...........
|...........
|===.....SD5
|E-502v64...
|...........
|...........
|===.....SD4
|F#502v64SD1
|...........
|...........
|...........
|...........
|...........
|...........
|===.....SD3
|G-502v64SD1
|...........
|...........
|...........
|...........
|...........
|...........
|===.....SD4
|E-502v64SD1
|...........
|...........
|...........
|...........
|...........
|...........
|...........
|...........
|...........
|...........
|...........
|...........
|===.....SD2
|...........
|...........
|...........
|...........
|...........
|...........
|...........
|...........
|...........
|...........
|...........
|...........
|...........
|...........
|...........
|...........
|...........
|...........
|...........
|...........
|...........
|...........
|...........
|...........
|...........
|...........
|...........
|...........
|...........
|...........
|...........
|...........
|...........
|...........
|...........
|...........
|...........
|...........
|...........
|...........
|...........
|...........
|...........
|...........
|...........
|...........
|...........
|...........
|...........
|...........
|...........
|...........
|...........
|...........
|...........
|...........
|...........
|...........
|...........
|...........
|...........
|...........
|...........
|...........
|...........
|...........
|...........
|...........
|...........
|...........

