ModPlug Tracker  IT
|D-611v64...
|===.....SD2
|D-611v64...
|===.....SD2
|C#711v64...
|===.....SD4
|B-611v64...
|...........
|...........
|===.....SD2
|D-611v64...
|===.....SD2
|D-611v64...
|...........
|===.....SD4
|...........
|C#711v64...
|===.....SD3
|C#711v64...
|...........
|...........
|===.....SD4
|A-611v64...
|...........
|...........
|===.....SD4
|F#611v64...
|===.....SD5
|A-611v64...
|...........
|...........
|===.....SD5
|...........
|...........
|...........
|...........
|A-611v64...
|===.....SD4
|F#611v64...
|===.....SD3
|A-611v64...
|===.....SD4
|F#611v64...
|===.....SD4
|A-611v64...
|===.....SD3
|A-611v64...
|...........
|...........
|...........
|...........
|===.....SD2
|B-611v64...
|...........
|...........
|===.....SD5
|B-611v64...
|===.....SD5
|C#711v64...
|...........
|...........
|===.....SD5
|A-611v64...
|...........
|...........
|...........
|...........
|...........
|...........
|...........
|===........
|...........
|...........
|...........
|...........
|...........
|...........
|...........
|...........
|...........
|...........
|...........
|...........
|...........
|E-611v64...
|...........
|F#611v64...
|...........
|...........
|...........
|E-611v64...
|...........
|...........
|...........
|===.....SD5
|...........
|C#711v64...
|...........
|...........
|...........
|...........
|...........
|...........
|...........
|A-611v64...
|...........
|...........
|...........
|...........
|...........
|...........
|===.....SD5
|E-611v64...
|...........
|...........
|...........
|...........
|...........
|D-611v64...
|...........
|...........
|...........
|C#611v64...
|...........
|...........
|...........
|...........
|===.....SD1
|C#711v64...
|...........
|...........
|...........
|...........
|...........
|...........
|...........
|A-611v64...
|...........
|...........
|...........
|...........
|...........
|...........
|===.....SD2
|D-611v64...
|...........
|...........
|...........
|...........
|...........
|===.....SD5
|...........
|...........
|...........
|B-611v64...
|...........
|C#711v64...
|...........
|A-611v64...
|...........
|...........
|...........
|...........
|...........
|...........
|===.....SD4
|...........
|...........
|...........
|...........
|...........
|...........
|...........
|...........
|...........
|...........
|...........
|...........
|...........
|...........
|B-611v64...
|...........
|===........
|...........
|B-611v64...
|...........
|C#711v64...
|...........
|...........
|...........
|A-611v64...
|...........
|...........
|...........
|...........
|...........
|...........
|...........
|===.....SD5
|...........
|...........
|...........
|...........
|...........
|...........
|...........
|...........
|...........
|...........
|...........
|...........
|...........
|E-611v64...
|...........
|F#611v64...
|...........
|...........
|===.....SD5
|E-611v64...
|...........
|...........
|...........
|...........
|===.....SD2
|C#711v64...
|...........
|...........
|...........
|...........
|...........
|...........
|...........
|A-611v64...
|...........
|...........
|...........
|...........
|...........
|...........
|===.....SD5
|E-611v64...
|...........
|...........
|...........
|...........
|...........
|D-611v64...
|...........
|...........
|...........
|C#611v64...
|...........
|...........
|...........
|...........
|===.....SD1
|C#711v64...
|...........
|...........
|...........
|...........
|...........
|...........
|...........
|A-611v64...
|...........
|...........
|...........
|...........
|...........
|...........
|===.....SD2
|D-611v64...
|...........
|...........
|...........
|...........
|...........
|===.....SD5
|...........
|...........
|...........
|B-611v64...
|...........
|C#711v64...
|...........
|A-611v64...
|...........
|...........
|...........
|...........
|...........
|...........
|===.....SD4
|...........
|...........
|...........
|...........
|...........
|...........
|...........
|...........
|...........
|...........
|...........
|...........
|...........
|...........
|B-611v64...
|...........
|===........
|...........
|B-611v64...
|...........
|C#711v64...
|...........
|...........
|...........
|A-611v64...
|...........
|...........
|...........
|...........
|...........
|...........
|...........
|===.....SD5
|...........
|...........
|...........
|...........
|...........
|...........
|...........
|...........
|...........
|...........
|...........
|...........
|...........
|...........
|...........
|...........
|...........
|...........
|...........
|...........
|...........
|...........
|...........
|...........
|...........
|...........
|...........
|...........
|...........
|E-611v64...
|===.....SD5
|D#611v64...
|===.....SD5
|E-611v64...
|...........
|...........
|...........
|...........
|...........
|===.....SD3
|...........
|...........
|...........
|...........
|...........
|...........
|...........
|...........
|...........
|A-611v64...
|...........
|...........
|...........
|...........
|===.....SD5
|...........
|...........
|...........
|...........
|...........
|...........
|F#511v64...
|...........
|...........
|...........
|...........
|...........
|E-611v64...
|...........
|...........
|...........
|D-611v64...
|...........
|...........
|...........
|C#611v64...
|...........
|...........
|===.....SD5
|B-511v64...
|...........
|...........
|===.....SD5
|A-511v50...
|...........
|...........
|...........
|===........
|...........
|...........
|...........
|...........
|...........
|F#511v64...
|...........
|...........
|...........
|...........
|...........
|E-611v64...
|...........
|...........
|...........
|D-611v64...
|...........
|...........
|...........
|C#611v64...
|...........
|...........
|...........
|A-511v60...
|...........
|...........
|...........
|...........
|...........
|...........
|...........
|...........
|...........
|...........
|...........
|...........
|.....v58...
|.....v58...
|.....v53...
|.....v43...
|.....v37...
|===.....SD1
|...........
|...........
|...........
|...........
|...........
|...........
|...........
|...........
|...........
|...........
|...........
|...........
|...........
|...........
|...........
|...........
|...........
|E-611v64...
|===.....SD2
|E-611v64...
|===.....SD3
|E-611v64...
|===.....SD5
|E-611v64...
|...........
|...........
|...........
|...........
|...........
|===.....SD3
|...........
|...........
|...........
|...........
|...........
|...........
|...........
|...........
|...........
|C#711v64...
|===.....SD3
|C#711v64...
|...........
|===.....SD3
|...........
|E-711v64...
|...........
|===.....SD1
|...........
|E-711v64SC5
|...........
|E-711v64...
|===.....SD4
|F#611v64...
|...........
|...........
|...........
|...........
|...........
|...........
|===.....SD5
|...........
|...........
|...........
|...........
|...........
|...........
|...........
|...........
|F#611v64...
|===.....SD4
|B-611v64...
|...........
|...........
|...........
|...........
|===.....SD2
|B-611v64...
|...........
|...........
|===.....SD1
|C#711v64...
|...........
|...........
|...........
|A-611v64...
|...........
|...........
|...........
|F#611v60...
|===.....SD4
|...........
|...........
|...........
|...........
|...........
|...........
|...........
|...........
|...........
|...........
|...........
|...........
|...........
|...........
|A-611v64SC5
|...........
|A-611v64...
|...........
|...........
|===.....SD1
|A-611v64...
|===........
|A-611v64...
|...........
|...........
|===.....SD5
|C#711v64...
|...........
|...........
|...........
|A-611v64...
|...........
|...........
|===.....SD2
|...........
|...........
|...........
|...........
|...........
|...........


